G04 start of page 7 for group -4062 idx -4062 *
G04 Title: (unknown), soldermask *
G04 Creator: pcb 20140316 *
G04 CreationDate: Thu Dec 21 20:14:05 2017 UTC *
G04 For: frankenteddy *
G04 Format: Gerber/RS-274X *
G04 PCB-Dimensions (mil): 6000.00 5000.00 *
G04 PCB-Coordinate-Origin: lower left *
%MOIN*%
%FSLAX25Y25*%
%LNBOTTOMMASK*%
%ADD84C,0.0800*%
%ADD83C,0.0420*%
%ADD82C,0.0887*%
%ADD81C,0.0808*%
%ADD80C,0.1500*%
%ADD79C,0.1660*%
%ADD78C,0.1260*%
%ADD77C,0.1520*%
%ADD76C,0.0001*%
%ADD75C,0.0760*%
G54D75*X404000Y393000D03*
X414000D03*
X424000D03*
X434000D03*
G54D76*G36*
X440200Y396800D02*Y389200D01*
X447800D01*
Y396800D01*
X440200D01*
G37*
G54D75*X468000Y406000D03*
Y396000D03*
Y371000D03*
Y361000D03*
G54D77*X517000Y454000D03*
G54D78*X522000Y409000D03*
X497000Y393000D03*
Y409000D03*
Y374000D03*
G54D75*X491000Y440000D03*
Y450000D03*
G54D76*G36*
X487200Y463800D02*Y456200D01*
X494800D01*
Y463800D01*
X487200D01*
G37*
G54D78*X522000Y393000D03*
X497000Y358000D03*
X522000D03*
Y374000D03*
X497000Y323000D03*
Y288000D03*
Y304000D03*
Y339000D03*
X522000Y323000D03*
Y339000D03*
Y288000D03*
Y304000D03*
G54D75*X512000Y262000D03*
G54D76*G36*
X518200Y265800D02*Y258200D01*
X525800D01*
Y265800D01*
X518200D01*
G37*
G54D75*X460600Y217800D03*
Y209900D03*
Y202000D03*
Y194100D03*
X478986Y211986D03*
X479000Y224972D03*
X460600Y186200D03*
Y178300D03*
X512000Y178000D03*
G54D76*G36*
X518200Y181800D02*Y174200D01*
X525800D01*
Y181800D01*
X518200D01*
G37*
G54D75*X460600Y170400D03*
G54D77*X517000Y147000D03*
G54D75*X478986Y171986D03*
X492986D03*
Y211986D03*
G54D79*X418000Y172000D03*
G54D76*G36*
X456800Y245300D02*Y237700D01*
X464400D01*
Y245300D01*
X456800D01*
G37*
G54D75*X460600Y233600D03*
Y225700D03*
X512000Y234000D03*
G54D76*G36*
X518200Y237800D02*Y230200D01*
X525800D01*
Y237800D01*
X518200D01*
G37*
G54D75*X512000Y206000D03*
G54D76*G36*
X518200Y209800D02*Y202200D01*
X525800D01*
Y209800D01*
X518200D01*
G37*
G54D75*X479000Y264972D03*
X493000Y225000D03*
Y265000D03*
G54D76*G36*
X409700Y259300D02*Y242700D01*
X426300D01*
Y259300D01*
X409700D01*
G37*
G36*
X370200Y346800D02*Y339200D01*
X377800D01*
Y346800D01*
X370200D01*
G37*
G54D75*X384000Y343000D03*
X394000D03*
X404000D03*
X414000D03*
X424000D03*
X434000D03*
X444000D03*
X468000Y336000D03*
Y326000D03*
Y301000D03*
Y291000D03*
X395986Y282986D03*
X406986D03*
X395986Y322986D03*
X406986D03*
X466000Y440000D03*
Y450000D03*
G54D76*G36*
X462200Y463800D02*Y456200D01*
X469800D01*
Y463800D01*
X462200D01*
G37*
G54D75*X441000Y440000D03*
X416000D03*
X441000Y450000D03*
G54D76*G36*
X437200Y463800D02*Y456200D01*
X444800D01*
Y463800D01*
X437200D01*
G37*
G54D75*X416000Y450000D03*
G54D76*G36*
X412200Y463800D02*Y456200D01*
X419800D01*
Y463800D01*
X412200D01*
G37*
G54D75*X391000Y440000D03*
Y450000D03*
G54D76*G36*
X387200Y463800D02*Y456200D01*
X394800D01*
Y463800D01*
X387200D01*
G37*
G54D75*X374000Y241500D03*
Y233600D03*
Y225700D03*
Y217800D03*
Y209900D03*
Y202000D03*
X373000Y323000D03*
Y313000D03*
Y303000D03*
G54D76*G36*
X369200Y296800D02*Y289200D01*
X376800D01*
Y296800D01*
X369200D01*
G37*
G54D75*X373000Y283000D03*
X319000Y252000D03*
X320000Y270000D03*
X305000Y320000D03*
X315000D03*
X296000D03*
X329000Y252000D03*
X339000D03*
Y232000D03*
G54D76*G36*
X335200Y225800D02*Y218200D01*
X342800D01*
Y225800D01*
X335200D01*
G37*
G54D75*X319000Y232000D03*
Y222000D03*
X329000D03*
Y232000D03*
X374000Y194100D03*
Y186200D03*
X360000Y186000D03*
X374000Y178300D03*
X352000Y181000D03*
X374000Y170400D03*
X315157Y157000D03*
G54D76*G36*
X331043Y160800D02*Y153200D01*
X338643D01*
Y160800D01*
X331043D01*
G37*
G54D75*X319000Y192000D03*
X329000D03*
X339000D03*
X352000Y191000D03*
X289000Y212000D03*
G54D76*G36*
X285200Y225800D02*Y218200D01*
X292800D01*
Y225800D01*
X285200D01*
G37*
G54D75*X289000Y232000D03*
Y242000D03*
X299000Y232000D03*
Y222000D03*
X309000D03*
Y232000D03*
X279000D03*
G54D76*G36*
X296200Y273800D02*Y266200D01*
X303800D01*
Y273800D01*
X296200D01*
G37*
G54D75*X310000Y270000D03*
X289000Y202000D03*
X279000Y192000D03*
X289000D03*
X309000D03*
X299000D03*
X279000Y180000D03*
X289500Y181500D03*
X298500D03*
X292000Y173000D03*
X301000D03*
G54D76*G36*
X370200Y396800D02*Y389200D01*
X377800D01*
Y396800D01*
X370200D01*
G37*
G54D75*X384000Y393000D03*
X394000D03*
X298000Y410000D03*
Y420000D03*
Y430000D03*
Y440000D03*
Y450000D03*
G54D76*G36*
X294200Y463800D02*Y456200D01*
X301800D01*
Y463800D01*
X294200D01*
G37*
G54D75*X323000Y420000D03*
Y430000D03*
Y440000D03*
X366000D03*
Y450000D03*
G54D76*G36*
X362200Y463800D02*Y456200D01*
X369800D01*
Y463800D01*
X362200D01*
G37*
G54D75*X323000Y450000D03*
G54D76*G36*
X319200Y463800D02*Y456200D01*
X326800D01*
Y463800D01*
X319200D01*
G37*
G54D75*X173000Y390000D03*
X148000Y420000D03*
Y430000D03*
Y440000D03*
Y450000D03*
G54D77*X117000Y454000D03*
G54D75*X173000Y400000D03*
Y410000D03*
G54D76*G36*
X169200Y463800D02*Y456200D01*
X176800D01*
Y463800D01*
X169200D01*
G37*
G36*
X144200D02*Y456200D01*
X151800D01*
Y463800D01*
X144200D01*
G37*
G54D75*X173000Y420000D03*
Y430000D03*
Y440000D03*
Y450000D03*
G54D80*X140000Y383000D03*
G54D75*X128000Y392500D03*
X198000Y420000D03*
Y430000D03*
Y440000D03*
Y450000D03*
G54D76*G36*
X194200Y463800D02*Y456200D01*
X201800D01*
Y463800D01*
X194200D01*
G37*
G54D75*X223000Y440000D03*
Y450000D03*
G54D76*G36*
X219200Y463800D02*Y456200D01*
X226800D01*
Y463800D01*
X219200D01*
G37*
G54D75*X198000Y400000D03*
Y410000D03*
X223000Y430000D03*
Y400000D03*
Y410000D03*
Y420000D03*
X248000Y430000D03*
Y440000D03*
Y450000D03*
G54D76*G36*
X244200Y463800D02*Y456200D01*
X251800D01*
Y463800D01*
X244200D01*
G37*
G54D75*X248000Y400000D03*
Y410000D03*
Y420000D03*
X273000Y410000D03*
Y420000D03*
Y430000D03*
Y440000D03*
Y450000D03*
G54D76*G36*
X269200Y463800D02*Y456200D01*
X276800D01*
Y463800D01*
X269200D01*
G37*
G54D77*X117000Y147000D03*
G54D76*G36*
X147775Y156040D02*Y147960D01*
X155855D01*
Y156040D01*
X147775D01*
G37*
G54D81*X171500Y152000D03*
G54D75*X162500D03*
G54D82*X191185Y139008D03*
X171500D03*
X151815D03*
G54D75*X109000Y252000D03*
X119000D03*
X129000D03*
X139000D03*
X119000Y242000D03*
X119014Y218986D03*
X129000Y242000D03*
X139000D03*
G54D76*G36*
X105200Y195800D02*Y188200D01*
X112800D01*
Y195800D01*
X105200D01*
G37*
G54D75*X119000Y192000D03*
X129000D03*
X139000D03*
X119000Y207000D03*
X149000Y252000D03*
Y242000D03*
Y192000D03*
X159000Y252000D03*
Y242000D03*
X169000Y252000D03*
X199000Y232000D03*
X179000D03*
X189000D03*
X169000D03*
X159000Y192000D03*
X169000D03*
X179000D03*
X189000D03*
X199000D03*
X159000Y207000D03*
X159014Y218986D03*
X271118Y154000D03*
G54D76*G36*
X277318Y157800D02*Y150200D01*
X284918D01*
Y157800D01*
X277318D01*
G37*
G54D81*X230555Y152000D03*
G54D82*Y139008D03*
G54D75*X246000Y171500D03*
G54D82*X210870Y139008D03*
G54D81*X191185Y152000D03*
X210870D03*
G54D75*X202000D03*
X182000D03*
X189000Y252000D03*
X199000D03*
X209000D03*
G54D76*G36*
X218200Y273800D02*Y266200D01*
X225800D01*
Y273800D01*
X218200D01*
G37*
G54D75*X227000Y320000D03*
X237000D03*
X232000Y270000D03*
X242000D03*
G54D83*X229000Y325000D03*
G54D75*X249000Y192000D03*
X259000D03*
X269000D03*
Y222000D03*
X279000D03*
X259000D03*
X269000Y232000D03*
X259000D03*
X219000Y252000D03*
X229000D03*
X239000D03*
G54D76*G36*
X245200Y255800D02*Y248200D01*
X252800D01*
Y255800D01*
X245200D01*
G37*
G54D75*X259000Y252000D03*
X269000D03*
X279000D03*
X289000D03*
X299000D03*
X309000D03*
X241000Y359000D03*
G54D76*G36*
X268700Y362800D02*Y355200D01*
X276300D01*
Y362800D01*
X268700D01*
G37*
G54D75*X282500Y359000D03*
X292500D03*
X302500D03*
X312500D03*
X322500D03*
X332500D03*
X342500D03*
G54D76*G36*
X288700Y384800D02*Y377200D01*
X296300D01*
Y384800D01*
X288700D01*
G37*
G54D75*X302500Y381000D03*
X312500D03*
X322500D03*
X332500D03*
X209000Y192000D03*
X219000D03*
X229000D03*
X239000D03*
G54D76*G36*
X197200Y362800D02*Y355200D01*
X204800D01*
Y362800D01*
X197200D01*
G37*
G54D75*X211000Y359000D03*
X221000D03*
X231000D03*
G54D76*G36*
X196700Y380800D02*Y373200D01*
X204300D01*
Y380800D01*
X196700D01*
G37*
G54D75*X210500Y377000D03*
X220500D03*
X230500D03*
X240500D03*
G54D80*X140000Y350500D03*
G54D75*X128000Y363000D03*
X179000Y252000D03*
X169000Y309000D03*
G54D76*G36*
X165200Y272800D02*Y265200D01*
X172800D01*
Y272800D01*
X165200D01*
G37*
G36*
X178000Y273000D02*Y265000D01*
X186000D01*
Y273000D01*
X178000D01*
G37*
G54D84*X182000Y279000D03*
G54D76*G36*
X178000Y293000D02*Y285000D01*
X186000D01*
Y293000D01*
X178000D01*
G37*
G54D84*X182000Y299000D03*
G54D76*G36*
X178000Y313000D02*Y305000D01*
X186000D01*
Y313000D01*
X178000D01*
G37*
G54D84*X182000Y319000D03*
G54D80*X140000Y318000D03*
G54D76*G36*
X132500Y293000D02*Y278000D01*
X147500D01*
Y293000D01*
X132500D01*
G37*
G54D75*X137000Y266000D03*
X128000Y330500D03*
M02*
