M48
INCH
T62C0.045
T61C0.020
T60C0.063
T59C0.051
T58C0.072
T57C0.080
T56C0.110
T55C0.126
T54C0.035
%
T61
X010600Y030450
X011100Y030450
X011250Y031350
X011750Y031350
X012300Y029200
X012850Y029200
X015000Y032700
X015500Y034400
X015550Y032550
X015750Y028900
X016100Y034400
X016400Y028900
X016850Y038050
X016850Y037550
X016850Y037050
X016850Y036500
X017900Y042500
X017900Y041500
X018900Y020450
X019750Y026450
X019850Y035100
X019900Y020450
X020250Y034750
X020400Y024550
X020600Y044500
X020600Y043500
X020600Y042500
X020600Y041500
X020600Y039200
X020600Y038650
X021050Y034100
X021050Y029850
X021500Y044500
X021500Y043500
X021500Y042500
X021500Y041500
X021550Y034100
X021550Y029850
X022050Y034100
X022050Y029850
X022550Y034100
X022550Y029850
X022650Y017000
X022900Y032500
X022950Y016400
X023200Y041000
X023550Y029800
X023750Y041100
X024050Y029800
X024300Y032950
X024300Y032400
X024300Y031300
X024350Y031850
X024450Y014000
X024550Y029800
X025050Y029800
X025050Y014150
X025750Y040850
X026350Y034100
X026350Y032950
X026400Y040850
X026850Y034100
X026850Y032950
X026900Y028750
X026900Y027050
X027350Y034100
X027350Y032950
X027400Y029100
X027400Y027050
X027850Y034100
X027850Y032950
X027900Y029450
X027900Y027050
X027900Y020050
X028350Y029850
X028350Y027050
X029550Y029850
X030050Y029850
X031550Y017300
X032350Y029900
X032600Y028850
X032600Y027350
X032850Y029900
X033100Y028850
X033100Y027350
X033350Y029900
X033500Y016850
X033850Y029900
X034350Y029900
X034700Y016850
X034700Y015850
X034800Y040700
X034850Y029900
X035000Y028850
X035000Y027400
X035450Y042100
X035500Y028850
X035500Y027400
X035700Y016700
X035700Y016050
X035750Y015150
X035800Y026400
X036100Y028850
X036100Y023400
X036150Y026000
X036250Y014800
X036350Y020500
X036550Y028850
X036700Y016700
X036700Y016050
X036750Y020250
X037600Y027550
X038500Y028250
X038550Y026450
X038550Y026000
X039400Y015300
X040650Y026750
X040650Y026300
X040850Y015500
X040850Y015000
X040850Y014550
X044850Y027850
X045100Y027350
X046650Y027850
X046650Y027350
X047900Y016200
X050750Y042700
X050750Y041350
X050750Y033900
X050750Y032350
T54
X010900Y025200
X010900Y019200
X011900Y020700
X011900Y025200
X011900Y024200
X011900Y019200
X011901Y021899
X012800Y039250
X012800Y036300
X012800Y033050
X012900Y025200
X012900Y024200
X012900Y019200
X013700Y026600
X013900Y025200
X013900Y024200
X013900Y019200
X014800Y046000
X014800Y045000
X014800Y044000
X014800Y043000
X014800Y042000
X014900Y025200
X014900Y024200
X014900Y019200
X015900Y020700
X015900Y025200
X015900Y024200
X015900Y019200
X015901Y021899
X016250Y015200
X016900Y025200
X016900Y023200
X016900Y019200
X017300Y046000
X017300Y045000
X017300Y044000
X017300Y043000
X017300Y042000
X017300Y041000
X017300Y040000
X017300Y039000
X017900Y025200
X017900Y023200
X017900Y019200
X018200Y031900
X018200Y030900
X018200Y029900
X018200Y028900
X018200Y027900
X018200Y026900
X018200Y015200
X018900Y025200
X018900Y023200
X018900Y019200
X019800Y046000
X019800Y045000
X019800Y044000
X019800Y043000
X019800Y042000
X019800Y041000
X019800Y040000
X019900Y025200
X019900Y023200
X019900Y019200
X020050Y037700
X020100Y035900
X020200Y015200
X020900Y025200
X020900Y019200
X021050Y037700
X021100Y035900
X021900Y025200
X021900Y019200
X022050Y037700
X022100Y035900
X022200Y027000
X022300Y046000
X022300Y045000
X022300Y044000
X022300Y043000
X022300Y042000
X022300Y041000
X022300Y040000
X022700Y032000
X022900Y025200
X022900Y019200
X023050Y037700
X023100Y035900
X023200Y027000
X023700Y032000
X023900Y025200
X023900Y019200
X024050Y037700
X024100Y035900
X024200Y027000
X024600Y017150
X024800Y046000
X024800Y045000
X024800Y044000
X024800Y043000
X024800Y042000
X024800Y041000
X024800Y040000
X024900Y025200
X024900Y019200
X025900Y025200
X025900Y023200
X025900Y022200
X025900Y019200
X026900Y025200
X026900Y023200
X026900Y022200
X026900Y019200
X027112Y015400
X027250Y035900
X027300Y046000
X027300Y045000
X027300Y044000
X027300Y043000
X027300Y042000
X027300Y041000
X027900Y025200
X027900Y023200
X027900Y022200
X027900Y019200
X027900Y018000
X028112Y015400
X028250Y035900
X028900Y025200
X028900Y024200
X028900Y023200
X028900Y022200
X028900Y021200
X028900Y020200
X028900Y019200
X028950Y018150
X029200Y017300
X029250Y038100
X029250Y035900
X029600Y032000
X029800Y046000
X029800Y045000
X029800Y044000
X029800Y043000
X029800Y042000
X029800Y041000
X029850Y018150
X029900Y025200
X029900Y023200
X029900Y022200
X029900Y019200
X030000Y027000
X030100Y017300
X030250Y038100
X030250Y035900
X030500Y032000
X030900Y025200
X030900Y023200
X030900Y022200
X030900Y019200
X031000Y027000
X031250Y038100
X031250Y035900
X031500Y032000
X031516Y015700
X031900Y025200
X031900Y023200
X031900Y022200
X031900Y019200
X032000Y027000
X032250Y038100
X032250Y035900
X032300Y046000
X032300Y045000
X032300Y044000
X032300Y043000
X032300Y042000
X032900Y025200
X032900Y023200
X032900Y022200
X032900Y019200
X033250Y038100
X033250Y035900
X033484Y015700
X033900Y025200
X033900Y023200
X033900Y022200
X033900Y019200
X034250Y035900
X035200Y019100
X035200Y018100
X036000Y018600
X036600Y046000
X036600Y045000
X036600Y044000
X037300Y032300
X037300Y031300
X037300Y030300
X037300Y029300
X037300Y028300
X037400Y039300
X037400Y034300
X037400Y024150
X037400Y023360
X037400Y022570
X037400Y021780
X037400Y020990
X037400Y020200
X037400Y019410
X037400Y018620
X037400Y017830
X037400Y017040
X038400Y039300
X038400Y034300
X039100Y046000
X039100Y045000
X039100Y044000
X039400Y039300
X039400Y034300
X039599Y032299
X039599Y028299
X040400Y039300
X040400Y034300
X040699Y032299
X040699Y028299
X041400Y039300
X041400Y034300
X041600Y046000
X041600Y045000
X041600Y044000
X042400Y039300
X042400Y034300
X043400Y039300
X043400Y034300
X044100Y046000
X044100Y045000
X044100Y044000
X044400Y039300
X044400Y034300
X046060Y024150
X046060Y023360
X046060Y022570
X046060Y021780
X046060Y020990
X046060Y020200
X046060Y019410
X046060Y018620
X046060Y017830
X046060Y017040
X046600Y046000
X046600Y045000
X046600Y044000
X046800Y040600
X046800Y039600
X046800Y037100
X046800Y036100
X046800Y033600
X046800Y032600
X046800Y030100
X046800Y029100
X047899Y021199
X047899Y017199
X047900Y026497
X047900Y022497
X049100Y046000
X049100Y045000
X049100Y044000
X049299Y021199
X049299Y017199
X049300Y026500
X049300Y022500
X051200Y026200
X051200Y023400
X051200Y020600
X051200Y017800
X052200Y026200
X052200Y023400
X052200Y020600
X052200Y017800
T62
X016900Y030900
X016900Y026900
T59
X015181Y015200
X017150Y015200
X019119Y015200
X021087Y015200
X023056Y015200
T60
X015181Y013901
X017150Y013901
X019119Y013901
X021087Y013901
X023056Y013901
T58
X014000Y038300
X014000Y035050
X014000Y031800
X014000Y028550
T57
X041800Y025100
X041800Y017200
T56
X049700Y040900
X049700Y039300
X049700Y037400
X049700Y035800
X049700Y033900
X049700Y032300
X049700Y030400
X049700Y028800
X052200Y040900
X052200Y039300
X052200Y037400
X052200Y035800
X052200Y033900
X052200Y032300
X052200Y030400
X052200Y028800
T55
X011700Y045400
X011700Y014700
X051700Y045400
X051700Y014700
M30
