G04 start of page 8 for group -4079 idx -4079 *
G04 Title: (unknown), topsilk *
G04 Creator: pcb 20140316 *
G04 CreationDate: Thu Dec 21 20:14:05 2017 UTC *
G04 For: frankenteddy *
G04 Format: Gerber/RS-274X *
G04 PCB-Dimensions (mil): 6000.00 5000.00 *
G04 PCB-Coordinate-Origin: lower left *
%MOIN*%
%FSLAX25Y25*%
%LNTOPSILK*%
%ADD88C,0.0200*%
%ADD87C,0.0100*%
%ADD86C,0.0250*%
%ADD85C,0.0080*%
G54D85*X255100Y176900D02*X269100Y180400D01*
X270000Y177500D02*X279053Y180053D01*
X269100Y180400D02*X270500Y174500D01*
X386500Y277000D02*X388000Y275500D01*
X386500Y277000D02*X385000Y275500D01*
X386500Y277000D02*Y273000D01*
X388000D01*
X255100Y176900D02*X256603Y170897D01*
G54D86*X360000Y467500D02*X497500D01*
G54D85*X367500Y399000D02*Y337000D01*
X367000Y399000D02*Y337000D01*
X368000D01*
X367000Y399000D02*X368000D01*
G54D86*X142000Y467500D02*X329000D01*
X286500Y387500D02*Y375000D01*
G54D85*X153000Y403000D02*Y410000D01*
G54D86*X177500Y263500D02*X186500D01*
X177500Y262500D02*X186500D01*
X194000Y382500D02*Y353000D01*
X265500Y365500D02*Y353000D01*
G54D85*X256603Y170897D02*X270500Y174500D01*
X246000Y171500D02*X256053Y173553D01*
G54D87*X525990Y158495D02*X529950D01*
X525990Y159980D02*Y158000D01*
Y159980D02*X526485Y160475D01*
X527475D01*
X527970Y159980D02*X527475Y160475D01*
X527970Y159980D02*Y158495D01*
X525990Y161663D02*X527970D01*
X529950Y162158D01*
X527970Y163148D01*
X529950Y164138D01*
X527970Y164633D01*
X525990D02*X527970D01*
X525990Y167801D02*Y165821D01*
Y167801D02*X526485Y168296D01*
X527475D01*
X527970Y167801D02*X527475Y168296D01*
X527970Y167801D02*Y166316D01*
X525990D02*X529950D01*
X527970Y167108D02*X529950Y168296D01*
X525990Y187980D02*Y186000D01*
Y187980D02*X526485Y188475D01*
X527475D01*
X527970Y187980D02*X527475Y188475D01*
X527970Y187980D02*Y186495D01*
X525990D02*X529950D01*
X527970Y187287D02*X529950Y188475D01*
X525990Y191643D02*X526485Y192138D01*
X525990Y191643D02*Y190158D01*
X526485Y189663D02*X525990Y190158D01*
X526485Y189663D02*X527475D01*
X527970Y190158D01*
Y191643D02*Y190158D01*
Y191643D02*X528465Y192138D01*
X529455D01*
X529950Y191643D02*X529455Y192138D01*
X529950Y191643D02*Y190158D01*
X529455Y189663D02*X529950Y190158D01*
X525990Y195306D02*X526485Y195801D01*
X525990Y195306D02*Y193821D01*
X526485Y193326D02*X525990Y193821D01*
X526485Y193326D02*X527475D01*
X527970Y193821D01*
Y195306D02*Y193821D01*
Y195306D02*X528465Y195801D01*
X529455D01*
X529950Y195306D02*X529455Y195801D01*
X529950Y195306D02*Y193821D01*
X529455Y193326D02*X529950Y193821D01*
X525990Y197979D02*Y196989D01*
Y197484D02*X529950D01*
Y197979D02*Y196989D01*
X525990Y219980D02*Y218000D01*
Y218990D02*X529950D01*
Y221168D02*X525990Y223643D01*
Y221168D02*X529950Y223643D01*
X525990Y247980D02*Y246000D01*
Y247980D02*X526485Y248475D01*
X527475D01*
X527970Y247980D02*X527475Y248475D01*
X527970Y247980D02*Y246495D01*
X525990D02*X529950D01*
X527970Y247287D02*X529950Y248475D01*
Y249663D02*X525990Y252138D01*
Y249663D02*X529950Y252138D01*
X353360Y439000D02*X357650D01*
X353360D02*X351930Y440001D01*
Y441574D02*Y440001D01*
Y441574D02*X353360Y442575D01*
X357650D01*
X354790D02*Y439000D01*
X355505Y445006D02*X357650D01*
X355505D02*X354790Y445721D01*
Y447151D02*Y445721D01*
Y444291D02*X355505Y445006D01*
Y449582D02*X357650D01*
X355505D02*X354790Y450297D01*
Y451012D02*Y450297D01*
Y451012D02*X355505Y451727D01*
X357650D01*
X355505D02*X354790Y452442D01*
Y453157D02*Y452442D01*
Y453157D02*X355505Y453872D01*
X357650D01*
X354790Y448867D02*X355505Y449582D01*
X351930Y458162D02*X357650D01*
Y461022D02*Y458162D01*
X377860Y438500D02*X382150D01*
X377860D02*X376430Y439501D01*
Y441074D02*Y439501D01*
Y441074D02*X377860Y442075D01*
X382150D01*
X379290D02*Y438500D01*
X380005Y444506D02*X382150D01*
X380005D02*X379290Y445221D01*
Y446651D02*Y445221D01*
Y443791D02*X380005Y444506D01*
Y449082D02*X382150D01*
X380005D02*X379290Y449797D01*
Y450512D02*Y449797D01*
Y450512D02*X380005Y451227D01*
X382150D01*
X380005D02*X379290Y451942D01*
Y452657D02*Y451942D01*
Y452657D02*X380005Y453372D01*
X382150D01*
X379290Y448367D02*X380005Y449082D01*
X376430Y460522D02*Y457662D01*
Y460522D02*X377145Y461237D01*
X378575D01*
X379290Y460522D02*X378575Y461237D01*
X379290Y460522D02*Y458377D01*
X376430D02*X382150D01*
X379290Y459521D02*X382150Y461237D01*
X404504Y438145D02*Y436000D01*
X407650Y438860D02*Y436000D01*
X401930D02*X407650D01*
X401930Y438860D02*Y436000D01*
X405505Y441291D02*X407650D01*
X405505D02*X404790Y442006D01*
Y442721D02*Y442006D01*
Y442721D02*X405505Y443436D01*
X407650D01*
X404790Y440576D02*X405505Y441291D01*
X401930Y448012D02*X407650D01*
Y447297D02*X406935Y448012D01*
X407650Y447297D02*Y445867D01*
X406935Y445152D02*X407650Y445867D01*
X405505Y445152D02*X406935D01*
X405505D02*X404790Y445867D01*
Y447297D02*Y445867D01*
Y447297D02*X405505Y448012D01*
X404504Y454447D02*Y452302D01*
X407650Y455162D02*Y452302D01*
X401930D02*X407650D01*
X401930Y455162D02*Y452302D01*
X402645Y457593D02*X407650D01*
X402645D02*X401930Y458308D01*
Y459023D02*Y458308D01*
X404790D02*Y456878D01*
X402645Y461168D02*X407650D01*
X402645D02*X401930Y461883D01*
Y462598D02*Y461883D01*
X404790D02*Y460453D01*
X407650Y464743D02*Y464028D01*
X425930Y435500D02*X431650D01*
X425930Y439075D02*X431650D01*
X428790D02*Y435500D01*
X429505Y440791D02*X430935D01*
X429505D02*X428790Y441506D01*
Y442936D02*Y441506D01*
Y442936D02*X429505Y443651D01*
X430935D01*
X431650Y442936D02*X430935Y443651D01*
X431650Y442936D02*Y441506D01*
X430935Y440791D02*X431650Y441506D01*
X429505Y446082D02*X433795D01*
X428790Y445367D02*X429505Y446082D01*
X428790Y446797D01*
Y448227D02*Y446797D01*
Y448227D02*X429505Y448942D01*
X430935D01*
X431650Y448227D02*X430935Y448942D01*
X431650Y448227D02*Y446797D01*
X430935Y446082D02*X431650Y446797D01*
X429505Y451373D02*X433795D01*
X428790Y450658D02*X429505Y451373D01*
X428790Y452088D01*
Y453518D02*Y452088D01*
Y453518D02*X429505Y454233D01*
X430935D01*
X431650Y453518D02*X430935Y454233D01*
X431650Y453518D02*Y452088D01*
X430935Y451373D02*X431650Y452088D01*
Y458809D02*Y456664D01*
X430935Y455949D02*X431650Y456664D01*
X429505Y455949D02*X430935D01*
X429505D02*X428790Y456664D01*
Y458094D02*Y456664D01*
Y458094D02*X429505Y458809D01*
X430220D02*Y455949D01*
X429505Y458809D02*X430220D01*
X429505Y461240D02*X431650D01*
X429505D02*X428790Y461955D01*
Y463385D02*Y461955D01*
Y460525D02*X429505Y461240D01*
X451930Y445500D02*X457650D01*
Y448360D02*Y445500D01*
X453360Y450076D02*X453503D01*
X455505D02*X457650D01*
X451930Y454366D02*X457650D01*
Y453651D02*X456935Y454366D01*
X457650Y453651D02*Y452221D01*
X456935Y451506D02*X457650Y452221D01*
X455505Y451506D02*X456935D01*
X455505D02*X454790Y452221D01*
Y453651D02*Y452221D01*
Y453651D02*X455505Y454366D01*
X480004Y442145D02*Y440000D01*
X483150Y442860D02*Y440000D01*
X477430D02*X483150D01*
X477430Y442860D02*Y440000D01*
X480290Y444576D02*X483150Y447436D01*
Y444576D02*X480290Y447436D01*
X477430Y449867D02*X482435D01*
X483150Y450582D01*
X479575D02*Y449152D01*
X481005Y452727D02*X483150D01*
X481005D02*X480290Y453442D01*
Y454872D02*Y453442D01*
Y452012D02*X481005Y452727D01*
X480290Y458733D02*X481005Y459448D01*
X480290Y458733D02*Y457303D01*
X481005Y456588D02*X480290Y457303D01*
X481005Y456588D02*X482435D01*
X483150Y457303D01*
X480290Y459448D02*X482435D01*
X483150Y460163D01*
Y458733D02*Y457303D01*
Y458733D02*X482435Y459448D01*
X505090Y360000D02*X513450D01*
Y364180D02*Y360000D01*
Y370868D02*Y366688D01*
Y370868D02*X512405Y371913D01*
X509897D02*X512405D01*
X508852Y370868D02*X509897Y371913D01*
X508852Y370868D02*Y367733D01*
X505090D02*X513450D01*
X505090Y370868D02*Y366688D01*
Y370868D02*X506135Y371913D01*
X507807D01*
X508852Y370868D02*X507807Y371913D01*
X505590Y329180D02*Y325000D01*
Y329180D02*X506635Y330225D01*
X508725D01*
X509770Y329180D02*X508725Y330225D01*
X509770Y329180D02*Y326045D01*
X505590D02*X513950D01*
X509770Y327717D02*X513950Y330225D01*
X505590Y332733D02*X513950D01*
X505590Y336913D02*Y332733D01*
X509352Y335868D02*Y332733D01*
X505590Y294680D02*Y290500D01*
Y294680D02*X506635Y295725D01*
X508725D01*
X509770Y294680D02*X508725Y295725D01*
X509770Y294680D02*Y291545D01*
X505590D02*X513950D01*
X509770Y293217D02*X513950Y295725D01*
Y302413D02*Y298233D01*
Y302413D02*X512905Y303458D01*
X510397D02*X512905D01*
X509352Y302413D02*X510397Y303458D01*
X509352Y302413D02*Y299278D01*
X505590D02*X513950D01*
X505590Y302413D02*Y298233D01*
Y302413D02*X506635Y303458D01*
X508307D01*
X509352Y302413D02*X508307Y303458D01*
X384000Y407570D02*Y401850D01*
Y407570D02*X386145Y404710D01*
X388290Y407570D01*
Y401850D01*
X390006Y403995D02*Y402565D01*
Y403995D02*X390721Y404710D01*
X392151D01*
X392866Y403995D01*
Y402565D01*
X392151Y401850D02*X392866Y402565D01*
X390721Y401850D02*X392151D01*
X390006Y402565D02*X390721Y401850D01*
X395297Y407570D02*Y402565D01*
X396012Y401850D01*
X394582Y405425D02*X396012D01*
X397442Y403995D02*Y402565D01*
Y403995D02*X398157Y404710D01*
X399587D01*
X400302Y403995D01*
Y402565D01*
X399587Y401850D02*X400302Y402565D01*
X398157Y401850D02*X399587D01*
X397442Y402565D02*X398157Y401850D01*
X402733Y403995D02*Y401850D01*
Y403995D02*X403448Y404710D01*
X404878D01*
X402018D02*X402733Y403995D01*
X409883Y407570D02*Y401850D01*
X411742Y407570D02*X412743Y406569D01*
Y402851D01*
X411742Y401850D02*X412743Y402851D01*
X409168Y401850D02*X411742D01*
X409168Y407570D02*X411742D01*
X415174Y403995D02*Y401850D01*
Y403995D02*X415889Y404710D01*
X417319D01*
X414459D02*X415174Y403995D01*
X419035Y406140D02*Y405997D01*
Y403995D02*Y401850D01*
X420465Y404710D02*X421895Y401850D01*
X423325Y404710D02*X421895Y401850D01*
X425756D02*X427901D01*
X425041Y402565D02*X425756Y401850D01*
X425041Y403995D02*Y402565D01*
Y403995D02*X425756Y404710D01*
X427186D01*
X427901Y403995D01*
X425041Y403280D02*X427901D01*
Y403995D02*Y403280D01*
X430332Y403995D02*Y401850D01*
Y403995D02*X431047Y404710D01*
X432477D01*
X429617D02*X430332Y403995D01*
X505090Y395000D02*X513450D01*
Y399180D02*Y395000D01*
X505090Y401688D02*X513450D01*
X505090Y405868D02*Y401688D01*
X508852Y404823D02*Y401688D01*
X452090Y395500D02*X460450D01*
Y399680D02*Y395500D01*
X452090Y402188D02*X460450D01*
X452090Y406368D02*Y402188D01*
X455852Y405323D02*Y402188D01*
X446000Y188010D02*X447980D01*
X448475Y187515D01*
Y186525D01*
X447980Y186030D02*X448475Y186525D01*
X446495Y186030D02*X447980D01*
X446495Y188010D02*Y184050D01*
X447287Y186030D02*X448475Y184050D01*
X449663D02*X452138Y188010D01*
X449663D02*X452138Y184050D01*
X446000Y180510D02*X447980D01*
X446990D02*Y176550D01*
X449168D02*X451643Y180510D01*
X449168D02*X451643Y176550D01*
X452090Y294180D02*Y290000D01*
Y294180D02*X453135Y295225D01*
X455225D01*
X456270Y294180D02*X455225Y295225D01*
X456270Y294180D02*Y291045D01*
X452090D02*X460450D01*
X456270Y292717D02*X460450Y295225D01*
Y301913D02*Y297733D01*
Y301913D02*X459405Y302958D01*
X456897D02*X459405D01*
X455852Y301913D02*X456897Y302958D01*
X455852Y301913D02*Y298778D01*
X452090D02*X460450D01*
X452090Y301913D02*Y297733D01*
Y301913D02*X453135Y302958D01*
X454807D01*
X455852Y301913D02*X454807Y302958D01*
X452090Y360500D02*X460450D01*
Y364680D02*Y360500D01*
Y371368D02*Y367188D01*
Y371368D02*X459405Y372413D01*
X456897D02*X459405D01*
X455852Y371368D02*X456897Y372413D01*
X455852Y371368D02*Y368233D01*
X452090D02*X460450D01*
X452090Y371368D02*Y367188D01*
Y371368D02*X453135Y372413D01*
X454807D01*
X455852Y371368D02*X454807Y372413D01*
X452090Y329180D02*Y325000D01*
Y329180D02*X453135Y330225D01*
X455225D01*
X456270Y329180D02*X455225Y330225D01*
X456270Y329180D02*Y326045D01*
X452090D02*X460450D01*
X456270Y327717D02*X460450Y330225D01*
X452090Y332733D02*X460450D01*
X452090Y336913D02*Y332733D01*
X455852Y335868D02*Y332733D01*
X445355Y322500D02*X446070Y321785D01*
Y320355D01*
X445355Y319640D01*
X440350Y320355D02*X441065Y319640D01*
X440350Y321785D02*Y320355D01*
X441065Y322500D02*X440350Y321785D01*
X443496D02*Y320355D01*
X444211Y319640D02*X445355D01*
X441065D02*X442781D01*
X443496Y320355D01*
X444211Y319640D02*X443496Y320355D01*
X440350Y317924D02*Y317209D01*
X445355Y315493D02*X446070Y314778D01*
Y313348D01*
X445355Y312633D01*
X440350Y313348D02*X441065Y312633D01*
X440350Y314778D02*Y313348D01*
X441065Y315493D02*X440350Y314778D01*
X443496D02*Y313348D01*
X444211Y312633D02*X445355D01*
X441065D02*X442781D01*
X443496Y313348D01*
X444211Y312633D02*X443496Y313348D01*
X446070Y310917D02*X440350Y309487D01*
X446070Y308057D01*
X441780Y303767D02*X446070D01*
X441780D02*X440350Y302337D01*
Y298047D01*
X442495Y296617D02*X446070D01*
X447500Y298047D01*
Y302337D02*Y298047D01*
Y302337D02*X446070Y303767D01*
X443210Y301622D02*X444640D01*
X443210D02*X442495Y300907D01*
Y299477D01*
X443210Y298762D01*
X442495Y298047D01*
X443210Y298762D02*X445355D01*
X444640D02*X445355Y299477D01*
Y300907D02*Y299477D01*
Y300907D02*X444640Y301622D01*
X442495Y298047D02*Y296617D01*
X444926Y294901D02*X446070Y293757D01*
X440350D02*X446070D01*
X440350Y294901D02*Y292756D01*
Y291040D02*X444640D01*
X446070Y290039D01*
Y288466D01*
X444640Y287465D01*
X440350D02*X444640D01*
X443210Y291040D02*Y287465D01*
X354570Y242000D02*Y239140D01*
X348850Y240570D02*X354570D01*
X348850Y236709D02*Y234564D01*
X349565Y237424D02*X348850Y236709D01*
X349565Y237424D02*X350995D01*
X351710Y236709D01*
Y235279D01*
X350995Y234564D01*
X350280Y237424D02*Y234564D01*
X350995D01*
X348850Y232133D02*Y229988D01*
X349565Y232848D02*X348850Y232133D01*
X349565Y232848D02*X350995D01*
X351710Y232133D01*
Y230703D01*
X350995Y229988D01*
X350280Y232848D02*Y229988D01*
X350995D01*
X348850Y227557D02*X350995D01*
X351710Y226842D01*
Y226127D01*
X350995Y225412D01*
X348850D02*X350995D01*
X351710Y228272D02*X350995Y227557D01*
X348850Y222981D02*Y220836D01*
X349565Y220121D01*
X350280Y220836D02*X349565Y220121D01*
X350280Y222981D02*Y220836D01*
X350995Y223696D02*X350280Y222981D01*
X350995Y223696D02*X351710Y222981D01*
Y220836D01*
X350995Y220121D01*
X349565Y223696D02*X348850Y222981D01*
X349565Y218405D02*X351710D01*
X349565D02*X348850Y217690D01*
X347420Y215545D02*X351710D01*
X346705Y216260D02*X347420Y215545D01*
X346705Y217690D02*Y216260D01*
X347420Y218405D02*X346705Y217690D01*
X348850D02*Y216260D01*
X349565Y215545D01*
X353855Y211255D02*X354570Y210540D01*
Y209110D01*
X353855Y208395D01*
X348850Y209110D02*X349565Y208395D01*
X348850Y210540D02*Y209110D01*
X349565Y211255D02*X348850Y210540D01*
X351996D02*Y209110D01*
X352711Y208395D02*X353855D01*
X349565D02*X351281D01*
X351996Y209110D01*
X352711Y208395D02*X351996Y209110D01*
X348850Y206679D02*Y205964D01*
X354570Y202103D02*X353855Y201388D01*
X354570Y203533D02*Y202103D01*
X353855Y204248D02*X354570Y203533D01*
X349565Y204248D02*X353855D01*
X349565D02*X348850Y203533D01*
X351996Y202103D02*X351281Y201388D01*
X351996Y204248D02*Y202103D01*
X348850Y203533D02*Y202103D01*
X349565Y201388D01*
X351281D01*
X365650Y250500D02*X359930Y254075D01*
Y250500D02*X365650Y254075D01*
Y258651D02*Y255791D01*
Y258651D02*X364935Y259366D01*
X363219D02*X364935D01*
X362504Y258651D02*X363219Y259366D01*
X362504Y258651D02*Y256506D01*
X359930D02*X365650D01*
X359930Y258651D02*Y255791D01*
Y258651D02*X360645Y259366D01*
X361789D01*
X362504Y258651D02*X361789Y259366D01*
X365650Y263942D02*Y261797D01*
X364935Y261082D02*X365650Y261797D01*
X363505Y261082D02*X364935D01*
X363505D02*X362790Y261797D01*
Y263227D02*Y261797D01*
Y263227D02*X363505Y263942D01*
X364220D02*Y261082D01*
X363505Y263942D02*X364220D01*
X365650Y268518D02*Y266373D01*
X364935Y265658D02*X365650Y266373D01*
X363505Y265658D02*X364935D01*
X363505D02*X362790Y266373D01*
Y267803D02*Y266373D01*
Y267803D02*X363505Y268518D01*
X364220D02*Y265658D01*
X363505Y268518D02*X364220D01*
X389000Y271227D02*X391860D01*
X392575Y271942D01*
Y273658D02*Y271942D01*
X391860Y274373D02*X392575Y273658D01*
X389715Y274373D02*X391860D01*
X389715Y276947D02*Y271227D01*
X389000Y276947D02*X391860D01*
X392575Y276232D01*
Y275088D01*
X391860Y274373D02*X392575Y275088D01*
X396436Y274087D02*X397151Y273372D01*
X395006Y274087D02*X396436D01*
X394291Y273372D02*X395006Y274087D01*
X394291Y273372D02*Y271942D01*
X395006Y271227D01*
X397151Y274087D02*Y271942D01*
X397866Y271227D01*
X395006D02*X396436D01*
X397151Y271942D01*
X400297Y276947D02*Y271942D01*
X401012Y271227D01*
X399582Y274802D02*X401012D01*
X403157Y276947D02*Y271942D01*
X403872Y271227D01*
X402442Y274802D02*X403872D01*
X407876Y276947D02*Y271227D01*
X410736D01*
X413167D02*X415312D01*
X412452Y271942D02*X413167Y271227D01*
X412452Y273372D02*Y271942D01*
Y273372D02*X413167Y274087D01*
X414597D01*
X415312Y273372D01*
X412452Y272657D02*X415312D01*
Y273372D02*Y272657D01*
X417028Y274087D02*X418458Y271227D01*
X419888Y274087D02*X418458Y271227D01*
X422319D02*X424464D01*
X421604Y271942D02*X422319Y271227D01*
X421604Y273372D02*Y271942D01*
Y273372D02*X422319Y274087D01*
X423749D01*
X424464Y273372D01*
X421604Y272657D02*X424464D01*
Y273372D02*Y272657D01*
X426180Y276947D02*Y271942D01*
X426895Y271227D01*
X430899Y275517D02*Y271227D01*
Y275517D02*X431900Y276947D01*
X433473D01*
X434474Y275517D01*
Y271227D01*
X430899Y274087D02*X434474D01*
X436190Y276232D02*X436905Y276947D01*
X439050D01*
X439765Y276232D01*
Y274802D01*
X436190Y271227D02*X439765Y274802D01*
X436190Y271227D02*X439765D01*
X441481Y273372D02*X444341Y276947D01*
X441481Y273372D02*X445056D01*
X444341Y276947D02*Y271227D01*
X389000Y297926D02*X390144Y299070D01*
Y293350D01*
X389000D02*X391145D01*
X412500Y298355D02*X413215Y299070D01*
X415360D01*
X416075Y298355D01*
Y296925D01*
X412500Y293350D02*X416075Y296925D01*
X412500Y293350D02*X416075D01*
X156850Y395000D02*X162570D01*
X159710Y392855D01*
X162570Y390710D01*
X156850D02*X162570D01*
X157565Y388994D02*X158995D01*
X159710Y388279D01*
Y386849D01*
X158995Y386134D01*
X157565D02*X158995D01*
X156850Y386849D02*X157565Y386134D01*
X156850Y388279D02*Y386849D01*
X157565Y388994D02*X156850Y388279D01*
X157565Y383703D02*X162570D01*
X157565D02*X156850Y382988D01*
X160425Y384418D02*Y382988D01*
X157565Y381558D02*X158995D01*
X159710Y380843D01*
Y379413D01*
X158995Y378698D01*
X157565D02*X158995D01*
X156850Y379413D02*X157565Y378698D01*
X156850Y380843D02*Y379413D01*
X157565Y381558D02*X156850Y380843D01*
Y376267D02*X158995D01*
X159710Y375552D01*
Y374122D01*
Y376982D02*X158995Y376267D01*
X162570Y359140D02*X161855Y358425D01*
X162570Y361285D02*Y359140D01*
X161855Y362000D02*X162570Y361285D01*
X160425Y362000D02*X161855D01*
X160425D02*X159710Y361285D01*
Y359140D01*
X158995Y358425D01*
X157565D02*X158995D01*
X156850Y359140D02*X157565Y358425D01*
X156850Y361285D02*Y359140D01*
X157565Y362000D02*X156850Y361285D01*
Y355994D02*Y353849D01*
X157565Y356709D02*X156850Y355994D01*
X157565Y356709D02*X158995D01*
X159710Y355994D01*
Y354564D01*
X158995Y353849D01*
X158280Y356709D02*Y353849D01*
X158995D01*
X156850Y351418D02*X158995D01*
X159710Y350703D01*
Y349273D01*
Y352133D02*X158995Y351418D01*
X159710Y347557D02*X156850Y346127D01*
X159710Y344697D02*X156850Y346127D01*
X157565Y342981D02*X158995D01*
X159710Y342266D01*
Y340836D01*
X158995Y340121D01*
X157565D02*X158995D01*
X156850Y340836D02*X157565Y340121D01*
X156850Y342266D02*Y340836D01*
X157565Y342981D02*X156850Y342266D01*
X157565Y323000D02*X159710D01*
X157565D02*X156850Y322285D01*
Y320855D01*
X157565Y320140D01*
X159710D01*
X156850Y317423D02*Y315564D01*
X157851Y318424D02*X156850Y317423D01*
X157851Y318424D02*X161569D01*
X162570Y317423D01*
Y315564D01*
Y290140D02*X161855Y289425D01*
X162570Y292285D02*Y290140D01*
X161855Y293000D02*X162570Y292285D01*
X157565Y293000D02*X161855D01*
X157565D02*X156850Y292285D01*
Y290140D01*
X157565Y289425D01*
X158995D01*
X159710Y290140D02*X158995Y289425D01*
X159710Y291570D02*Y290140D01*
X156850Y286994D02*X158995D01*
X159710Y286279D01*
Y285564D01*
X158995Y284849D01*
X156850D02*X158995D01*
X159710Y287709D02*X158995Y286994D01*
X156850Y280273D02*X162570D01*
X156850Y280988D02*X157565Y280273D01*
X156850Y282418D02*Y280988D01*
X157565Y283133D02*X156850Y282418D01*
X157565Y283133D02*X158995D01*
X159710Y282418D01*
Y280988D01*
X158995Y280273D01*
X144215Y183070D02*Y177350D01*
X143500Y183070D02*X146360D01*
X147075Y182355D01*
Y180925D01*
X146360Y180210D02*X147075Y180925D01*
X144215Y180210D02*X146360D01*
X148791Y179495D02*Y178065D01*
Y179495D02*X149506Y180210D01*
X150936D01*
X151651Y179495D01*
Y178065D01*
X150936Y177350D02*X151651Y178065D01*
X149506Y177350D02*X150936D01*
X148791Y178065D02*X149506Y177350D01*
X153367Y180210D02*Y178065D01*
X154082Y177350D01*
X154797D01*
X155512Y178065D01*
Y180210D02*Y178065D01*
X156227Y177350D01*
X156942D01*
X157657Y178065D01*
Y180210D02*Y178065D01*
X160088Y177350D02*X162233D01*
X159373Y178065D02*X160088Y177350D01*
X159373Y179495D02*Y178065D01*
Y179495D02*X160088Y180210D01*
X161518D01*
X162233Y179495D01*
X159373Y178780D02*X162233D01*
Y179495D02*Y178780D01*
X164664Y179495D02*Y177350D01*
Y179495D02*X165379Y180210D01*
X166809D01*
X163949D02*X164664Y179495D01*
X172100Y177350D02*X173959D01*
X171099Y178351D02*X172100Y177350D01*
X171099Y182069D02*Y178351D01*
Y182069D02*X172100Y183070D01*
X173959D01*
X175675Y179495D02*Y178065D01*
Y179495D02*X176390Y180210D01*
X177820D01*
X178535Y179495D01*
Y178065D01*
X177820Y177350D02*X178535Y178065D01*
X176390Y177350D02*X177820D01*
X175675Y178065D02*X176390Y177350D01*
X180966Y179495D02*Y177350D01*
Y179495D02*X181681Y180210D01*
X182396D01*
X183111Y179495D01*
Y177350D01*
X180251Y180210D02*X180966Y179495D01*
X185542D02*Y177350D01*
Y179495D02*X186257Y180210D01*
X186972D01*
X187687Y179495D01*
Y177350D01*
X184827Y180210D02*X185542Y179495D01*
X142860Y173570D02*X143575Y172855D01*
X140715Y173570D02*X142860D01*
X140000Y172855D02*X140715Y173570D01*
X140000Y172855D02*Y168565D01*
X140715Y167850D01*
X142860D01*
X143575Y168565D01*
Y169995D02*Y168565D01*
X142860Y170710D02*X143575Y169995D01*
X141430Y170710D02*X142860D01*
X146006Y169995D02*Y167850D01*
Y169995D02*X146721Y170710D01*
X147436D01*
X148151Y169995D01*
Y167850D01*
X145291Y170710D02*X146006Y169995D01*
X152727Y173570D02*Y167850D01*
X152012D02*X152727Y168565D01*
X150582Y167850D02*X152012D01*
X149867Y168565D02*X150582Y167850D01*
X149867Y169995D02*Y168565D01*
Y169995D02*X150582Y170710D01*
X152012D01*
X152727Y169995D01*
X161500Y170710D02*Y168565D01*
X162215Y167850D01*
X163645D01*
X164360Y168565D01*
Y170710D02*Y168565D01*
X167077Y167850D02*X168936D01*
X166076Y168851D02*X167077Y167850D01*
X166076Y172569D02*Y168851D01*
Y172569D02*X167077Y173570D01*
X168936D01*
X177360D02*X178075Y172855D01*
X175215Y173570D02*X177360D01*
X174500Y172855D02*X175215Y173570D01*
X174500Y172855D02*Y171425D01*
X175215Y170710D01*
X177360D01*
X178075Y169995D01*
Y168565D01*
X177360Y167850D02*X178075Y168565D01*
X175215Y167850D02*X177360D01*
X174500Y168565D02*X175215Y167850D01*
X180506D02*X182651D01*
X179791Y168565D02*X180506Y167850D01*
X179791Y169995D02*Y168565D01*
Y169995D02*X180506Y170710D01*
X181936D01*
X182651Y169995D01*
X179791Y169280D02*X182651D01*
Y169995D02*Y169280D01*
X185082Y169995D02*Y167850D01*
Y169995D02*X185797Y170710D01*
X187227D01*
X184367D02*X185082Y169995D01*
X188943Y170710D02*X190373Y167850D01*
X191803Y170710D02*X190373Y167850D01*
X193519Y169995D02*Y168565D01*
Y169995D02*X194234Y170710D01*
X195664D01*
X196379Y169995D01*
Y168565D01*
X195664Y167850D02*X196379Y168565D01*
X194234Y167850D02*X195664D01*
X193519Y168565D02*X194234Y167850D01*
X189500Y321010D02*Y317050D01*
Y321010D02*X190985Y319030D01*
X192470Y321010D01*
Y317050D01*
X190480Y311010D02*X190975Y310515D01*
X188995Y311010D02*X190480D01*
X188500Y310515D02*X188995Y311010D01*
X188500Y310515D02*Y307545D01*
X188995Y307050D01*
X190480D01*
X190975Y307545D01*
Y308535D02*Y307545D01*
X190480Y309030D02*X190975Y308535D01*
X189490Y309030D02*X190480D01*
X192658Y308535D02*Y307050D01*
Y308535D02*X193153Y309030D01*
X193648D01*
X194143Y308535D01*
Y307050D01*
X192163Y309030D02*X192658Y308535D01*
X197311Y311010D02*Y307050D01*
X196816D02*X197311Y307545D01*
X195826Y307050D02*X196816D01*
X195331Y307545D02*X195826Y307050D01*
X195331Y308535D02*Y307545D01*
Y308535D02*X195826Y309030D01*
X196816D01*
X197311Y308535D01*
X191480Y301010D02*X191975Y300515D01*
X189995Y301010D02*X191480D01*
X189500Y300515D02*X189995Y301010D01*
X189500Y300515D02*Y299525D01*
X189995Y299030D01*
X191480D01*
X191975Y298535D01*
Y297545D01*
X191480Y297050D02*X191975Y297545D01*
X189995Y297050D02*X191480D01*
X189500Y297545D02*X189995Y297050D01*
X189000Y279030D02*Y277545D01*
X189495Y277050D01*
X190485D01*
X190980Y277545D01*
Y279030D02*Y277545D01*
X192861Y277050D02*X194148D01*
X192168Y277743D02*X192861Y277050D01*
X192168Y280317D02*Y277743D01*
Y280317D02*X192861Y281010D01*
X194148D01*
X190480Y271010D02*X190975Y270515D01*
X188995Y271010D02*X190480D01*
X188500Y270515D02*X188995Y271010D01*
X188500Y270515D02*Y267545D01*
X188995Y267050D01*
X190480D01*
X190975Y267545D01*
Y268535D02*Y267545D01*
X190480Y269030D02*X190975Y268535D01*
X189490Y269030D02*X190480D01*
X192658Y268535D02*Y267050D01*
Y268535D02*X193153Y269030D01*
X193648D01*
X194143Y268535D01*
Y267050D01*
X192163Y269030D02*X192658Y268535D01*
X197311Y271010D02*Y267050D01*
X196816D02*X197311Y267545D01*
X195826Y267050D02*X196816D01*
X195331Y267545D02*X195826Y267050D01*
X195331Y268535D02*Y267545D01*
Y268535D02*X195826Y269030D01*
X196816D01*
X197311Y268535D01*
X190480Y290510D02*X190975Y290015D01*
X188995Y290510D02*X190480D01*
X188500Y290015D02*X188995Y290510D01*
X188500Y290015D02*Y287045D01*
X188995Y286550D01*
X190480D01*
X190975Y287045D01*
Y288035D02*Y287045D01*
X190480Y288530D02*X190975Y288035D01*
X189490Y288530D02*X190480D01*
X192658Y288035D02*Y286550D01*
Y288035D02*X193153Y288530D01*
X193648D01*
X194143Y288035D01*
Y286550D01*
X192163Y288530D02*X192658Y288035D01*
X197311Y290510D02*Y286550D01*
X196816D02*X197311Y287045D01*
X195826Y286550D02*X196816D01*
X195331Y287045D02*X195826Y286550D01*
X195331Y288035D02*Y287045D01*
Y288035D02*X195826Y288530D01*
X196816D01*
X197311Y288035D01*
X259000Y183530D02*X260940D01*
X261425Y183045D01*
Y182075D01*
X260940Y181590D02*X261425Y182075D01*
X259485Y181590D02*X260940D01*
X259485Y183530D02*Y179650D01*
X260261Y181590D02*X261425Y179650D01*
X262589Y183530D02*X264529D01*
X262589D02*Y181590D01*
X263074Y182075D01*
X264044D01*
X264529Y181590D01*
Y180135D01*
X264044Y179650D02*X264529Y180135D01*
X263074Y179650D02*X264044D01*
X262589Y180135D02*X263074Y179650D01*
X226500Y172855D02*X227215Y173570D01*
X228645D01*
X229360Y172855D01*
X228645Y167850D02*X229360Y168565D01*
X227215Y167850D02*X228645D01*
X226500Y168565D02*X227215Y167850D01*
Y170996D02*X228645D01*
X229360Y172855D02*Y171711D01*
Y170281D02*Y168565D01*
Y170281D02*X228645Y170996D01*
X229360Y171711D02*X228645Y170996D01*
X231076Y167850D02*X231791D01*
X233507Y172855D02*X234222Y173570D01*
X235652D01*
X236367Y172855D01*
X235652Y167850D02*X236367Y168565D01*
X234222Y167850D02*X235652D01*
X233507Y168565D02*X234222Y167850D01*
Y170996D02*X235652D01*
X236367Y172855D02*Y171711D01*
Y170281D02*Y168565D01*
Y170281D02*X235652Y170996D01*
X236367Y171711D02*X235652Y170996D01*
X238083Y173570D02*X239513Y167850D01*
X240943Y173570D01*
X201500D02*Y167850D01*
Y173570D02*X203645Y170710D01*
X205790Y173570D01*
Y167850D01*
X207506Y169995D02*Y168565D01*
Y169995D02*X208221Y170710D01*
X209651D01*
X210366Y169995D01*
Y168565D01*
X209651Y167850D02*X210366Y168565D01*
X208221Y167850D02*X209651D01*
X207506Y168565D02*X208221Y167850D01*
X212797Y173570D02*Y168565D01*
X213512Y167850D01*
X212082Y171425D02*X213512D01*
X214942Y169995D02*Y168565D01*
Y169995D02*X215657Y170710D01*
X217087D01*
X217802Y169995D01*
Y168565D01*
X217087Y167850D02*X217802Y168565D01*
X215657Y167850D02*X217087D01*
X214942Y168565D02*X215657Y167850D01*
X220233Y169995D02*Y167850D01*
Y169995D02*X220948Y170710D01*
X222378D01*
X219518D02*X220233Y169995D01*
X185715Y361570D02*Y355850D01*
X185000Y361570D02*X187860D01*
X188575Y360855D01*
Y359425D01*
X187860Y358710D02*X188575Y359425D01*
X185715Y358710D02*X187860D01*
X190291Y360140D02*Y359997D01*
Y357995D02*Y355850D01*
X183500Y373850D02*X186360D01*
X187075Y374565D01*
Y376281D02*Y374565D01*
X186360Y376996D02*X187075Y376281D01*
X184215Y376996D02*X186360D01*
X184215Y379570D02*Y373850D01*
X183500Y379570D02*X186360D01*
X187075Y378855D01*
Y377711D01*
X186360Y376996D02*X187075Y377711D01*
X189506Y379570D02*Y374565D01*
X190221Y373850D01*
X188791Y377425D02*X190221D01*
X139150Y437860D02*Y436001D01*
X138149Y435000D02*X139150Y436001D01*
X134431Y435000D02*X138149D01*
X134431D02*X133430Y436001D01*
Y437860D02*Y436001D01*
X137005Y439576D02*X138435D01*
X137005D02*X136290Y440291D01*
Y441721D02*Y440291D01*
Y441721D02*X137005Y442436D01*
X138435D01*
X139150Y441721D02*X138435Y442436D01*
X139150Y441721D02*Y440291D01*
X138435Y439576D02*X139150Y440291D01*
X137005Y444867D02*X139150D01*
X137005D02*X136290Y445582D01*
Y446297D02*Y445582D01*
Y446297D02*X137005Y447012D01*
X139150D01*
X137005D02*X136290Y447727D01*
Y448442D02*Y447727D01*
Y448442D02*X137005Y449157D01*
X139150D01*
X136290Y444152D02*X137005Y444867D01*
Y451588D02*X139150D01*
X137005D02*X136290Y452303D01*
Y453018D02*Y452303D01*
Y453018D02*X137005Y453733D01*
X139150D01*
X137005D02*X136290Y454448D01*
Y455163D02*Y454448D01*
Y455163D02*X137005Y455878D01*
X139150D01*
X136290Y450873D02*X137005Y451588D01*
X139150Y460454D02*Y458309D01*
Y460454D02*X138435Y461169D01*
X137720Y460454D02*X138435Y461169D01*
X137720Y460454D02*Y458309D01*
X137005Y457594D02*X137720Y458309D01*
X137005Y457594D02*X136290Y458309D01*
Y460454D02*Y458309D01*
Y460454D02*X137005Y461169D01*
X138435Y457594D02*X139150Y458309D01*
X183430Y407860D02*X184145Y408575D01*
X183430Y407860D02*Y405715D01*
X184145Y405000D02*X183430Y405715D01*
X184145Y405000D02*X185575D01*
X186290Y405715D01*
Y407860D02*Y405715D01*
Y407860D02*X187005Y408575D01*
X188435D01*
X189150Y407860D02*X188435Y408575D01*
X189150Y407860D02*Y405715D01*
X188435Y405000D02*X189150Y405715D01*
Y413151D02*Y411006D01*
X188435Y410291D02*X189150Y411006D01*
X187005Y410291D02*X188435D01*
X187005D02*X186290Y411006D01*
Y412436D02*Y411006D01*
Y412436D02*X187005Y413151D01*
X187720D02*Y410291D01*
X187005Y413151D02*X187720D01*
X187005Y415582D02*X189150D01*
X187005D02*X186290Y416297D01*
Y417012D02*Y416297D01*
Y417012D02*X187005Y417727D01*
X189150D01*
X186290Y414867D02*X187005Y415582D01*
X189150Y422303D02*Y420158D01*
Y422303D02*X188435Y423018D01*
X187720Y422303D02*X188435Y423018D01*
X187720Y422303D02*Y420158D01*
X187005Y419443D02*X187720Y420158D01*
X187005Y419443D02*X186290Y420158D01*
Y422303D02*Y420158D01*
Y422303D02*X187005Y423018D01*
X188435Y419443D02*X189150Y420158D01*
X187005Y424734D02*X188435D01*
X187005D02*X186290Y425449D01*
Y426879D02*Y425449D01*
Y426879D02*X187005Y427594D01*
X188435D01*
X189150Y426879D02*X188435Y427594D01*
X189150Y426879D02*Y425449D01*
X188435Y424734D02*X189150Y425449D01*
X187005Y430025D02*X189150D01*
X187005D02*X186290Y430740D01*
Y432170D02*Y430740D01*
Y429310D02*X187005Y430025D01*
X183430Y437890D02*Y436460D01*
Y437175D02*X189150D01*
Y437890D02*Y436460D01*
X187005Y440321D02*X189150D01*
X187005D02*X186290Y441036D01*
Y441751D02*Y441036D01*
Y441751D02*X187005Y442466D01*
X189150D01*
X186290Y439606D02*X187005Y440321D01*
Y444897D02*X191295D01*
X186290Y444182D02*X187005Y444897D01*
X186290Y445612D01*
Y447042D02*Y445612D01*
Y447042D02*X187005Y447757D01*
X188435D01*
X189150Y447042D02*X188435Y447757D01*
X189150Y447042D02*Y445612D01*
X188435Y444897D02*X189150Y445612D01*
X186290Y449473D02*X188435D01*
X189150Y450188D01*
Y451618D02*Y450188D01*
Y451618D02*X188435Y452333D01*
X186290D02*X188435D01*
X183430Y454764D02*X188435D01*
X189150Y455479D01*
X185575D02*Y454049D01*
X184574Y459483D02*X183430Y460627D01*
X189150D01*
Y461628D02*Y459483D01*
X207930Y406360D02*X208645Y407075D01*
X207930Y406360D02*Y404215D01*
X208645Y403500D02*X207930Y404215D01*
X208645Y403500D02*X210075D01*
X210790Y404215D01*
Y406360D02*Y404215D01*
Y406360D02*X211505Y407075D01*
X212935D01*
X213650Y406360D02*X212935Y407075D01*
X213650Y406360D02*Y404215D01*
X212935Y403500D02*X213650Y404215D01*
Y411651D02*Y409506D01*
X212935Y408791D02*X213650Y409506D01*
X211505Y408791D02*X212935D01*
X211505D02*X210790Y409506D01*
Y410936D02*Y409506D01*
Y410936D02*X211505Y411651D01*
X212220D02*Y408791D01*
X211505Y411651D02*X212220D01*
X211505Y414082D02*X213650D01*
X211505D02*X210790Y414797D01*
Y415512D02*Y414797D01*
Y415512D02*X211505Y416227D01*
X213650D01*
X210790Y413367D02*X211505Y414082D01*
X213650Y420803D02*Y418658D01*
Y420803D02*X212935Y421518D01*
X212220Y420803D02*X212935Y421518D01*
X212220Y420803D02*Y418658D01*
X211505Y417943D02*X212220Y418658D01*
X211505Y417943D02*X210790Y418658D01*
Y420803D02*Y418658D01*
Y420803D02*X211505Y421518D01*
X212935Y417943D02*X213650Y418658D01*
X211505Y423234D02*X212935D01*
X211505D02*X210790Y423949D01*
Y425379D02*Y423949D01*
Y425379D02*X211505Y426094D01*
X212935D01*
X213650Y425379D02*X212935Y426094D01*
X213650Y425379D02*Y423949D01*
X212935Y423234D02*X213650Y423949D01*
X211505Y428525D02*X213650D01*
X211505D02*X210790Y429240D01*
Y430670D02*Y429240D01*
Y427810D02*X211505Y428525D01*
X207930Y436390D02*Y434960D01*
Y435675D02*X213650D01*
Y436390D02*Y434960D01*
X211505Y438821D02*X213650D01*
X211505D02*X210790Y439536D01*
Y440251D02*Y439536D01*
Y440251D02*X211505Y440966D01*
X213650D01*
X210790Y438106D02*X211505Y438821D01*
Y443397D02*X215795D01*
X210790Y442682D02*X211505Y443397D01*
X210790Y444112D01*
Y445542D02*Y444112D01*
Y445542D02*X211505Y446257D01*
X212935D01*
X213650Y445542D02*X212935Y446257D01*
X213650Y445542D02*Y444112D01*
X212935Y443397D02*X213650Y444112D01*
X210790Y447973D02*X212935D01*
X213650Y448688D01*
Y450118D02*Y448688D01*
Y450118D02*X212935Y450833D01*
X210790D02*X212935D01*
X207930Y453264D02*X212935D01*
X213650Y453979D01*
X210075D02*Y452549D01*
X208645Y457983D02*X207930Y458698D01*
Y460843D02*Y458698D01*
Y460843D02*X208645Y461558D01*
X210075D01*
X213650Y457983D02*X210075Y461558D01*
X213650D02*Y457983D01*
X232930Y407360D02*X233645Y408075D01*
X232930Y407360D02*Y405215D01*
X233645Y404500D02*X232930Y405215D01*
X233645Y404500D02*X235075D01*
X235790Y405215D01*
Y407360D02*Y405215D01*
Y407360D02*X236505Y408075D01*
X237935D01*
X238650Y407360D02*X237935Y408075D01*
X238650Y407360D02*Y405215D01*
X237935Y404500D02*X238650Y405215D01*
Y412651D02*Y410506D01*
X237935Y409791D02*X238650Y410506D01*
X236505Y409791D02*X237935D01*
X236505D02*X235790Y410506D01*
Y411936D02*Y410506D01*
Y411936D02*X236505Y412651D01*
X237220D02*Y409791D01*
X236505Y412651D02*X237220D01*
X236505Y415082D02*X238650D01*
X236505D02*X235790Y415797D01*
Y416512D02*Y415797D01*
Y416512D02*X236505Y417227D01*
X238650D01*
X235790Y414367D02*X236505Y415082D01*
X238650Y421803D02*Y419658D01*
Y421803D02*X237935Y422518D01*
X237220Y421803D02*X237935Y422518D01*
X237220Y421803D02*Y419658D01*
X236505Y418943D02*X237220Y419658D01*
X236505Y418943D02*X235790Y419658D01*
Y421803D02*Y419658D01*
Y421803D02*X236505Y422518D01*
X237935Y418943D02*X238650Y419658D01*
X236505Y424234D02*X237935D01*
X236505D02*X235790Y424949D01*
Y426379D02*Y424949D01*
Y426379D02*X236505Y427094D01*
X237935D01*
X238650Y426379D02*X237935Y427094D01*
X238650Y426379D02*Y424949D01*
X237935Y424234D02*X238650Y424949D01*
X236505Y429525D02*X238650D01*
X236505D02*X235790Y430240D01*
Y431670D02*Y430240D01*
Y428810D02*X236505Y429525D01*
X232930Y437390D02*Y435960D01*
Y436675D02*X238650D01*
Y437390D02*Y435960D01*
X236505Y439821D02*X238650D01*
X236505D02*X235790Y440536D01*
Y441251D02*Y440536D01*
Y441251D02*X236505Y441966D01*
X238650D01*
X235790Y439106D02*X236505Y439821D01*
Y444397D02*X240795D01*
X235790Y443682D02*X236505Y444397D01*
X235790Y445112D01*
Y446542D02*Y445112D01*
Y446542D02*X236505Y447257D01*
X237935D01*
X238650Y446542D02*X237935Y447257D01*
X238650Y446542D02*Y445112D01*
X237935Y444397D02*X238650Y445112D01*
X235790Y448973D02*X237935D01*
X238650Y449688D01*
Y451118D02*Y449688D01*
Y451118D02*X237935Y451833D01*
X235790D02*X237935D01*
X232930Y454264D02*X237935D01*
X238650Y454979D01*
X235075D02*Y453549D01*
X233645Y458983D02*X232930Y459698D01*
Y461128D02*Y459698D01*
Y461128D02*X233645Y461843D01*
X238650Y461128D02*X237935Y461843D01*
X238650Y461128D02*Y459698D01*
X237935Y458983D02*X238650Y459698D01*
X235504Y461128D02*Y459698D01*
X233645Y461843D02*X234789D01*
X236219D02*X237935D01*
X236219D02*X235504Y461128D01*
X234789Y461843D02*X235504Y461128D01*
X262004Y413145D02*Y411000D01*
X265150Y413860D02*Y411000D01*
X259430D02*X265150D01*
X259430Y413860D02*Y411000D01*
X263005Y416291D02*X265150D01*
X263005D02*X262290Y417006D01*
Y417721D02*Y417006D01*
Y417721D02*X263005Y418436D01*
X265150D01*
X262290Y415576D02*X263005Y416291D01*
X262290Y420152D02*X265150Y421582D01*
X262290Y423012D02*X265150Y421582D01*
Y425443D02*Y424728D01*
X259430Y432593D02*X260145Y433308D01*
X259430Y432593D02*Y430448D01*
X260145Y429733D02*X259430Y430448D01*
X260145Y429733D02*X261575D01*
X262290Y430448D01*
Y432593D02*Y430448D01*
Y432593D02*X263005Y433308D01*
X264435D01*
X265150Y432593D02*X264435Y433308D01*
X265150Y432593D02*Y430448D01*
X264435Y429733D02*X265150Y430448D01*
Y437884D02*Y435739D01*
X264435Y435024D02*X265150Y435739D01*
X263005Y435024D02*X264435D01*
X263005D02*X262290Y435739D01*
Y437169D02*Y435739D01*
Y437169D02*X263005Y437884D01*
X263720D02*Y435024D01*
X263005Y437884D02*X263720D01*
X263005Y440315D02*X265150D01*
X263005D02*X262290Y441030D01*
Y441745D02*Y441030D01*
Y441745D02*X263005Y442460D01*
X265150D01*
X262290Y439600D02*X263005Y440315D01*
X265150Y447036D02*Y444891D01*
Y447036D02*X264435Y447751D01*
X263720Y447036D02*X264435Y447751D01*
X263720Y447036D02*Y444891D01*
X263005Y444176D02*X263720Y444891D01*
X263005Y444176D02*X262290Y444891D01*
Y447036D02*Y444891D01*
Y447036D02*X263005Y447751D01*
X264435Y444176D02*X265150Y444891D01*
X263005Y449467D02*X264435D01*
X263005D02*X262290Y450182D01*
Y451612D02*Y450182D01*
Y451612D02*X263005Y452327D01*
X264435D01*
X265150Y451612D02*X264435Y452327D01*
X265150Y451612D02*Y450182D01*
X264435Y449467D02*X265150Y450182D01*
X263005Y454758D02*X265150D01*
X263005D02*X262290Y455473D01*
Y456903D02*Y455473D01*
Y454043D02*X263005Y454758D01*
X265150Y461479D02*Y459334D01*
Y461479D02*X264435Y462194D01*
X263720Y461479D02*X264435Y462194D01*
X263720Y461479D02*Y459334D01*
X263005Y458619D02*X263720Y459334D01*
X263005Y458619D02*X262290Y459334D01*
Y461479D02*Y459334D01*
Y461479D02*X263005Y462194D01*
X264435Y458619D02*X265150Y459334D01*
X288650Y421360D02*Y418500D01*
Y421360D02*X287935Y422075D01*
X286219D02*X287935D01*
X285504Y421360D02*X286219Y422075D01*
X285504Y421360D02*Y419215D01*
X282930D02*X288650D01*
X282930Y421360D02*Y418500D01*
Y421360D02*X283645Y422075D01*
X284789D01*
X285504Y421360D02*X284789Y422075D01*
X286505Y424506D02*X288650D01*
X286505D02*X285790Y425221D01*
Y426651D02*Y425221D01*
Y423791D02*X286505Y424506D01*
X284360Y428367D02*X284503D01*
X286505D02*X288650D01*
X285790Y431942D02*X286505Y432657D01*
X285790Y431942D02*Y430512D01*
X286505Y429797D02*X285790Y430512D01*
X286505Y429797D02*X287935D01*
X288650Y430512D01*
Y431942D02*Y430512D01*
Y431942D02*X287935Y432657D01*
X290080Y429797D02*X290795Y430512D01*
Y431942D02*Y430512D01*
Y431942D02*X290080Y432657D01*
X285790D02*X290080D01*
X282930Y434373D02*X288650D01*
X286505D02*X285790Y435088D01*
Y436518D02*Y435088D01*
Y436518D02*X286505Y437233D01*
X288650D01*
X282930Y439664D02*X287935D01*
X288650Y440379D01*
X285075D02*Y438949D01*
X282930Y444383D02*X288650D01*
Y447243D02*Y444383D01*
X285504Y451104D02*Y448959D01*
X288650Y451819D02*Y448959D01*
X282930D02*X288650D01*
X282930Y451819D02*Y448959D01*
Y454250D02*X288650D01*
X282930Y456109D02*X283931Y457110D01*
X287649D01*
X288650Y456109D02*X287649Y457110D01*
X288650Y456109D02*Y453535D01*
X282930Y456109D02*Y453535D01*
X288650Y461686D02*Y459541D01*
Y461686D02*X287935Y462401D01*
X287220Y461686D02*X287935Y462401D01*
X287220Y461686D02*Y459541D01*
X286505Y458826D02*X287220Y459541D01*
X286505Y458826D02*X285790Y459541D01*
Y461686D02*Y459541D01*
Y461686D02*X286505Y462401D01*
X287935Y458826D02*X288650Y459541D01*
X310145Y407500D02*X314435D01*
X310145D02*X309430Y408215D01*
Y409645D02*Y408215D01*
Y409645D02*X310145Y410360D01*
X314435D01*
X315150Y409645D02*X314435Y410360D01*
X315150Y409645D02*Y408215D01*
X314435Y407500D02*X315150Y408215D01*
X309430Y412076D02*X315150D01*
X314435D02*X315150Y412791D01*
Y414221D02*Y412791D01*
Y414221D02*X314435Y414936D01*
X313005D02*X314435D01*
X312290Y414221D02*X313005Y414936D01*
X312290Y414221D02*Y412791D01*
X313005Y412076D02*X312290Y412791D01*
X315150Y419512D02*Y417367D01*
Y419512D02*X314435Y420227D01*
X313720Y419512D02*X314435Y420227D01*
X313720Y419512D02*Y417367D01*
X313005Y416652D02*X313720Y417367D01*
X313005Y416652D02*X312290Y417367D01*
Y419512D02*Y417367D01*
Y419512D02*X313005Y420227D01*
X314435Y416652D02*X315150Y417367D01*
X309430Y422658D02*X314435D01*
X315150Y423373D01*
X311575D02*Y421943D01*
X312290Y426948D02*X313005Y427663D01*
X312290Y426948D02*Y425518D01*
X313005Y424803D02*X312290Y425518D01*
X313005Y424803D02*X314435D01*
X315150Y425518D01*
X312290Y427663D02*X314435D01*
X315150Y428378D01*
Y426948D02*Y425518D01*
Y426948D02*X314435Y427663D01*
X312290Y432954D02*Y430809D01*
X313005Y430094D02*X312290Y430809D01*
X313005Y430094D02*X314435D01*
X315150Y430809D01*
Y432954D02*Y430809D01*
X309430Y434670D02*X314435D01*
X315150Y435385D01*
Y439675D02*Y437530D01*
X314435Y436815D02*X315150Y437530D01*
X313005Y436815D02*X314435D01*
X313005D02*X312290Y437530D01*
Y438960D02*Y437530D01*
Y438960D02*X313005Y439675D01*
X313720D02*Y436815D01*
X313005Y439675D02*X313720D01*
X310860Y443965D02*X315150D01*
X310860D02*X309430Y444966D01*
Y446539D02*Y444966D01*
Y446539D02*X310860Y447540D01*
X315150D01*
X312290D02*Y443965D01*
Y449256D02*X315150Y450686D01*
X312290Y452116D02*X315150Y450686D01*
X313005Y453832D02*X314435D01*
X313005D02*X312290Y454547D01*
Y455977D02*Y454547D01*
Y455977D02*X313005Y456692D01*
X314435D01*
X315150Y455977D02*X314435Y456692D01*
X315150Y455977D02*Y454547D01*
X314435Y453832D02*X315150Y454547D01*
X310860Y458408D02*X311003D01*
X313005D02*X315150D01*
X309430Y462698D02*X315150D01*
Y461983D02*X314435Y462698D01*
X315150Y461983D02*Y460553D01*
X314435Y459838D02*X315150Y460553D01*
X313005Y459838D02*X314435D01*
X313005D02*X312290Y460553D01*
Y461983D02*Y460553D01*
Y461983D02*X313005Y462698D01*
X158930Y423500D02*X164650D01*
X158930D02*X164650Y427075D01*
X158930D02*X164650D01*
X161790Y430936D02*X162505Y431651D01*
X161790Y430936D02*Y429506D01*
X162505Y428791D02*X161790Y429506D01*
X162505Y428791D02*X163935D01*
X164650Y429506D01*
X161790Y431651D02*X163935D01*
X164650Y432366D01*
Y430936D02*Y429506D01*
Y430936D02*X163935Y431651D01*
X161790Y434082D02*X164650Y435512D01*
X161790Y436942D02*X164650Y435512D01*
X160360Y438658D02*X160503D01*
X162505D02*X164650D01*
X161790Y442233D02*X162505Y442948D01*
X161790Y442233D02*Y440803D01*
X162505Y440088D02*X161790Y440803D01*
X162505Y440088D02*X163935D01*
X164650Y440803D01*
Y442233D02*Y440803D01*
Y442233D02*X163935Y442948D01*
X166080Y440088D02*X166795Y440803D01*
Y442233D02*Y440803D01*
Y442233D02*X166080Y442948D01*
X161790D02*X166080D01*
X161790Y446809D02*X162505Y447524D01*
X161790Y446809D02*Y445379D01*
X162505Y444664D02*X161790Y445379D01*
X162505Y444664D02*X163935D01*
X164650Y445379D01*
X161790Y447524D02*X163935D01*
X164650Y448239D01*
Y446809D02*Y445379D01*
Y446809D02*X163935Y447524D01*
X158930Y450670D02*X163935D01*
X164650Y451385D01*
X161075D02*Y449955D01*
X160360Y452815D02*X160503D01*
X162505D02*X164650D01*
X162505Y454245D02*X163935D01*
X162505D02*X161790Y454960D01*
Y456390D02*Y454960D01*
Y456390D02*X162505Y457105D01*
X163935D01*
X164650Y456390D02*X163935Y457105D01*
X164650Y456390D02*Y454960D01*
X163935Y454245D02*X164650Y454960D01*
X162505Y459536D02*X164650D01*
X162505D02*X161790Y460251D01*
Y460966D02*Y460251D01*
Y460966D02*X162505Y461681D01*
X164650D01*
X161790Y458821D02*X162505Y459536D01*
X283000Y351070D02*Y345350D01*
Y351070D02*X285145Y348210D01*
X287290Y351070D01*
Y345350D01*
X289006Y347495D02*Y346065D01*
Y347495D02*X289721Y348210D01*
X291151D01*
X291866Y347495D01*
Y346065D01*
X291151Y345350D02*X291866Y346065D01*
X289721Y345350D02*X291151D01*
X289006Y346065D02*X289721Y345350D01*
X294297Y351070D02*Y346065D01*
X295012Y345350D01*
X293582Y348925D02*X295012D01*
X296442Y347495D02*Y346065D01*
Y347495D02*X297157Y348210D01*
X298587D01*
X299302Y347495D01*
Y346065D01*
X298587Y345350D02*X299302Y346065D01*
X297157Y345350D02*X298587D01*
X296442Y346065D02*X297157Y345350D01*
X301733Y347495D02*Y345350D01*
Y347495D02*X302448Y348210D01*
X303878D01*
X301018D02*X301733Y347495D01*
X308168Y349640D02*Y345350D01*
Y349640D02*X309169Y351070D01*
X310742D01*
X311743Y349640D01*
Y345350D01*
X308168Y348210D02*X311743D01*
X318893Y351070D02*X319608Y350355D01*
X316748Y351070D02*X318893D01*
X316033Y350355D02*X316748Y351070D01*
X316033Y350355D02*Y348925D01*
X316748Y348210D01*
X318893D01*
X319608Y347495D01*
Y346065D01*
X318893Y345350D02*X319608Y346065D01*
X316748Y345350D02*X318893D01*
X316033Y346065D02*X316748Y345350D01*
X322039D02*X324184D01*
X321324Y346065D02*X322039Y345350D01*
X321324Y347495D02*Y346065D01*
Y347495D02*X322039Y348210D01*
X323469D01*
X324184Y347495D01*
X321324Y346780D02*X324184D01*
Y347495D02*Y346780D01*
X326615Y347495D02*Y345350D01*
Y347495D02*X327330Y348210D01*
X328045D01*
X328760Y347495D01*
Y345350D01*
X325900Y348210D02*X326615Y347495D01*
X331191Y345350D02*X333336D01*
X334051Y346065D01*
X333336Y346780D02*X334051Y346065D01*
X331191Y346780D02*X333336D01*
X330476Y347495D02*X331191Y346780D01*
X330476Y347495D02*X331191Y348210D01*
X333336D01*
X334051Y347495D01*
X330476Y346065D02*X331191Y345350D01*
X335767D02*X336482D01*
X207860Y351570D02*X208575Y350855D01*
X205715Y351570D02*X207860D01*
X205000Y350855D02*X205715Y351570D01*
X205000Y350855D02*Y349425D01*
X205715Y348710D01*
X207860D01*
X208575Y347995D01*
Y346565D01*
X207860Y345850D02*X208575Y346565D01*
X205715Y345850D02*X207860D01*
X205000Y346565D02*X205715Y345850D01*
X211006D02*X213151D01*
X210291Y346565D02*X211006Y345850D01*
X210291Y347995D02*Y346565D01*
Y347995D02*X211006Y348710D01*
X212436D01*
X213151Y347995D01*
X210291Y347280D02*X213151D01*
Y347995D02*Y347280D01*
X215582Y347995D02*Y345850D01*
Y347995D02*X216297Y348710D01*
X217727D01*
X214867D02*X215582Y347995D01*
X219443Y348710D02*X220873Y345850D01*
X222303Y348710D02*X220873Y345850D01*
X224019Y347995D02*Y346565D01*
Y347995D02*X224734Y348710D01*
X226164D01*
X226879Y347995D01*
Y346565D01*
X226164Y345850D02*X226879Y346565D01*
X224734Y345850D02*X226164D01*
X224019Y346565D02*X224734Y345850D01*
X231169Y350140D02*Y345850D01*
Y350140D02*X232170Y351570D01*
X233743D01*
X234744Y350140D01*
Y345850D01*
X231169Y348710D02*X234744D01*
X241894Y351570D02*X242609Y350855D01*
X239749Y351570D02*X241894D01*
X239034Y350855D02*X239749Y351570D01*
X239034Y350855D02*Y349425D01*
X239749Y348710D01*
X241894D01*
X242609Y347995D01*
Y346565D01*
X241894Y345850D02*X242609Y346565D01*
X239749Y345850D02*X241894D01*
X239034Y346565D02*X239749Y345850D01*
X245040D02*X247185D01*
X244325Y346565D02*X245040Y345850D01*
X244325Y347995D02*Y346565D01*
Y347995D02*X245040Y348710D01*
X246470D01*
X247185Y347995D01*
X244325Y347280D02*X247185D01*
Y347995D02*Y347280D01*
X249616Y347995D02*Y345850D01*
Y347995D02*X250331Y348710D01*
X251046D01*
X251761Y347995D01*
Y345850D01*
X248901Y348710D02*X249616Y347995D01*
X254192Y345850D02*X256337D01*
X257052Y346565D01*
X256337Y347280D02*X257052Y346565D01*
X254192Y347280D02*X256337D01*
X253477Y347995D02*X254192Y347280D01*
X253477Y347995D02*X254192Y348710D01*
X256337D01*
X257052Y347995D01*
X253477Y346565D02*X254192Y345850D01*
X258768D02*X259483D01*
X104715Y410570D02*Y404850D01*
X104000Y410570D02*X106860D01*
X107575Y409855D01*
Y408425D01*
X106860Y407710D02*X107575Y408425D01*
X104715Y407710D02*X106860D01*
X109291Y410570D02*Y407710D01*
X110006Y404850D01*
X111436Y407710D01*
X112866Y404850D01*
X113581Y407710D01*
Y410570D02*Y407710D01*
X115297Y410570D02*X118157D01*
X118872Y409855D01*
Y408425D01*
X118157Y407710D02*X118872Y408425D01*
X116012Y407710D02*X118157D01*
X116012Y410570D02*Y404850D01*
X117156Y407710D02*X118872Y404850D01*
X123162Y410570D02*X124592D01*
X123877D02*Y404850D01*
X123162D02*X124592D01*
X126308Y410570D02*Y404850D01*
Y410570D02*X129883Y404850D01*
Y410570D02*Y404850D01*
X305000Y372070D02*Y366350D01*
X307860D01*
X309576Y368495D02*Y367065D01*
Y368495D02*X310291Y369210D01*
X311721D01*
X312436Y368495D01*
Y367065D01*
X311721Y366350D02*X312436Y367065D01*
X310291Y366350D02*X311721D01*
X309576Y367065D02*X310291Y366350D01*
X314152Y372070D02*X317012D01*
X317727Y371355D01*
Y369925D01*
X317012Y369210D02*X317727Y369925D01*
X314867Y369210D02*X317012D01*
X314867Y372070D02*Y366350D01*
X316011Y369210D02*X317727Y366350D01*
X319443Y370640D02*Y366350D01*
Y370640D02*X320444Y372070D01*
X322017D01*
X323018Y370640D01*
Y366350D01*
X319443Y369210D02*X323018D01*
X327308Y367065D02*X331598Y371355D01*
X338748Y372070D02*X339463Y371355D01*
X336603Y372070D02*X338748D01*
X335888Y371355D02*X336603Y372070D01*
X335888Y371355D02*Y369925D01*
X336603Y369210D01*
X338748D01*
X339463Y368495D01*
Y367065D01*
X338748Y366350D02*X339463Y367065D01*
X336603Y366350D02*X338748D01*
X335888Y367065D02*X336603Y366350D01*
X341894Y372070D02*Y366350D01*
X341179Y372070D02*X344039D01*
X344754Y371355D01*
Y369925D01*
X344039Y369210D02*X344754Y369925D01*
X341894Y369210D02*X344039D01*
X346470Y372070D02*X347900D01*
X347185D02*Y366350D01*
X346470D02*X347900D01*
X323215Y396070D02*Y390350D01*
X322500Y396070D02*X325360D01*
X326075Y395355D01*
Y393925D01*
X325360Y393210D02*X326075Y393925D01*
X323215Y393210D02*X325360D01*
X327791Y394640D02*Y394497D01*
Y392495D02*Y390350D01*
X329221Y393210D02*X332081Y390350D01*
X329221D02*X332081Y393210D01*
X333797D02*Y391065D01*
X334512Y390350D01*
X336657Y393210D02*Y388920D01*
X335942Y388205D02*X336657Y388920D01*
X334512Y388205D02*X335942D01*
X333797Y388920D02*X334512Y388205D01*
Y390350D02*X335942D01*
X336657Y391065D01*
X368000Y387000D02*X450000D01*
Y399000D02*X368000D01*
Y349000D02*Y337000D01*
X450000D01*
Y349000D02*X368000D01*
X450000Y337000D02*Y349000D01*
X368000Y399000D02*Y387000D01*
Y349000D01*
X450000Y399000D02*Y349000D01*
X369000Y399000D02*Y337000D01*
X368000Y328000D02*X438000D01*
X368000D02*Y278000D01*
X438000Y328000D02*Y278000D01*
X368000D02*X438000D01*
X398958Y295486D02*X398972Y295472D01*
X392986Y295486D02*X398958D01*
X392972Y310472D02*X398972D01*
X392986Y295486D02*X392972Y295472D01*
Y310472D02*Y295472D01*
X398972Y310472D02*Y295472D01*
X395986Y310486D02*X395972Y310472D01*
X395986Y322986D02*Y310486D01*
Y295458D02*X395972Y295472D01*
X395986Y295458D02*Y282986D01*
X409958Y295486D02*X409972Y295472D01*
X403986Y295486D02*X409958D01*
X403972Y310472D02*X409972D01*
X403986Y295486D02*X403972Y295472D01*
Y310472D02*Y295472D01*
X409972Y310472D02*Y295472D01*
X406986Y310486D02*X406972Y310472D01*
X406986Y322986D02*Y310486D01*
Y295458D02*X406972Y295472D01*
X406986Y295458D02*Y282986D01*
X516780Y445921D02*Y442772D01*
X525047Y453795D02*X528591D01*
X516780Y462063D02*Y465606D01*
X509299Y453795D02*X505362D01*
X516780Y461669D02*G75*G03X509299Y454189I0J-7480D01*G01*
G75*G03X517173Y446315I7874J0D01*G01*
G75*G03X524654Y453795I0J7480D01*G01*
G75*G03X516780Y461669I-7874J0D01*G01*
Y465606D02*G75*G03X504969Y453795I0J-11811D01*G01*
X528591D02*G75*G03X516780Y465606I-11811J0D01*G01*
X504969Y453795D02*G75*G03X516780Y441984I11811J0D01*G01*
G75*G03X528591Y453795I0J11811D01*G01*
X474000Y412000D02*Y390000D01*
X462000D02*X474000D01*
X462000D02*Y412000D01*
X474000D02*X462000D01*
X485000Y434000D02*X497000D01*
Y466000D02*Y434000D01*
X485000Y466000D02*X497000D01*
X485000D02*Y434000D01*
X460000D02*X472000D01*
Y466000D02*Y434000D01*
X460000Y466000D02*X472000D01*
X460000D02*Y434000D01*
X474000Y377000D02*Y355000D01*
X462000D02*X474000D01*
X462000D02*Y377000D01*
X474000D02*X462000D01*
X474000Y342000D02*Y320000D01*
X462000D02*X474000D01*
X462000D02*Y342000D01*
X474000D02*X462000D01*
X474000Y307000D02*Y285000D01*
X462000D02*X474000D01*
X462000D02*Y307000D01*
X474000D02*X462000D01*
X435000Y434000D02*X447000D01*
Y466000D02*Y434000D01*
X435000Y466000D02*X447000D01*
X435000D02*Y434000D01*
X410000D02*X422000D01*
Y466000D02*Y434000D01*
X410000Y466000D02*X422000D01*
X410000D02*Y434000D01*
X385000D02*X397000D01*
Y466000D02*Y434000D01*
X385000Y466000D02*X397000D01*
X385000D02*Y434000D01*
X360000D02*X372000D01*
Y466000D02*Y434000D01*
X360000Y466000D02*X372000D01*
X360000D02*Y434000D01*
X325000Y180622D02*G75*G03X301378Y157000I0J-23622D01*G01*
G75*G03X325000Y133378I23622J0D01*G01*
G75*G03X348622Y157000I0J23622D01*G01*
G75*G03X325000Y180622I-23622J0D01*G01*
X275213Y134709D02*X277181D01*
X296173Y145606D02*Y161606D01*
X297173Y145606D02*Y161606D01*
Y145606D02*X294173D01*
X297173Y161787D02*X294591D01*
X294504Y161874D01*
X295291Y161787D02*Y160787D01*
X296173Y159906D01*
X295291Y145606D02*Y147606D01*
X296173Y148488D01*
X276000Y173685D02*G75*G03X256315Y154000I0J-19685D01*G01*
G75*G03X275606Y134709I19291J0D01*G01*
X296079Y154000D02*G75*G03X276394Y173685I-19685J0D01*G01*
X276787Y134709D02*G75*G03X296079Y154000I0J19291D01*G01*
X292000Y173000D02*X301000D01*
X296500Y174500D02*Y171500D01*
X103000Y258000D02*Y246000D01*
Y247000D02*X345000D01*
Y258000D02*X103000D01*
X345000Y246000D02*Y258000D01*
X103000Y246000D02*Y188000D01*
X345000Y246000D02*Y188000D01*
X103000Y198000D02*Y186000D01*
X345000D01*
Y197000D02*X103000D01*
X345000Y186000D02*Y198000D01*
X131500Y204028D02*X131486Y204014D01*
X131500Y210000D02*Y204028D01*
X146486Y210014D02*Y204014D01*
X131500Y210000D02*X131486Y210014D01*
X146486D01*
X131486Y204014D02*X146486D01*
X146500Y207000D02*X146486Y207014D01*
X146500Y207000D02*X159000D01*
X131472D02*X131486Y207014D01*
X119000Y207000D02*X131472D01*
X131514Y216014D02*X131500Y216000D01*
X131514Y221986D02*Y216014D01*
X146500Y222000D02*Y216000D01*
X131514Y221986D02*X131500Y222000D01*
X146500D01*
X131500Y216000D02*X146500D01*
X146514Y218986D02*X146500Y219000D01*
X146514Y218986D02*X159014D01*
X131486D02*X131500Y219000D01*
X119014Y218986D02*X131486D01*
X116780Y138921D02*Y135772D01*
X125047Y146795D02*X128591D01*
X116780Y155063D02*Y158606D01*
X109299Y146795D02*X105362D01*
X116780Y154669D02*G75*G03X109299Y147189I0J-7480D01*G01*
G75*G03X117173Y139315I7874J0D01*G01*
G75*G03X124654Y146795I0J7480D01*G01*
G75*G03X116780Y154669I-7874J0D01*G01*
Y158606D02*G75*G03X104969Y146795I0J-11811D01*G01*
X128591D02*G75*G03X116780Y158606I-11811J0D01*G01*
X104969Y146795D02*G75*G03X116780Y134984I11811J0D01*G01*
G75*G03X128591Y146795I0J11811D01*G01*
X141972Y164598D02*Y132315D01*
X240398Y164598D02*Y132315D01*
X141972Y164598D02*X240398D01*
X141972Y132315D02*X240398D01*
X141972Y163811D02*X240398D01*
X289500Y181500D02*X298500D01*
X294000Y183000D02*Y180000D01*
X346000Y175000D02*X356000D01*
X346000Y197000D02*X356000D01*
X346000D02*Y175000D01*
X367000Y186000D02*G75*G03X356000Y197000I-11000J0D01*G01*
Y175000D02*G75*G03X367000Y186000I0J11000D01*G01*
X368000Y247500D02*Y165000D01*
X380000D01*
Y246500D02*Y165000D01*
X454600Y246500D02*Y165000D01*
X466600D01*
X466500Y270000D01*
X368000D02*Y165000D01*
Y249000D02*X466600D01*
X368000Y246500D02*X380000D01*
X455000D02*X466500D01*
X368000Y270000D02*X466600D01*
X398000Y134500D02*X368000Y165000D01*
X436500Y134500D02*X466500Y165000D01*
X398000Y134500D02*X436600D01*
X528000Y170000D02*Y186000D01*
X529000Y170000D02*Y186000D01*
Y170000D02*X526000D01*
X529000Y186000D02*X526000D01*
X527000Y170000D02*Y171000D01*
X528000Y172000D01*
X527000Y186000D02*X528000Y185000D01*
X517000Y190000D02*G75*G03X505000Y178000I0J-12000D01*G01*
G75*G03X517000Y166000I12000J0D01*G01*
X529000Y178000D02*G75*G03X517000Y190000I-12000J0D01*G01*
Y166000D02*G75*G03X529000Y178000I0J12000D01*G01*
X516780Y138921D02*Y135772D01*
X525047Y146795D02*X528591D01*
X516780Y155063D02*Y158606D01*
X509299Y146795D02*X505362D01*
X516780Y154669D02*G75*G03X509299Y147189I0J-7480D01*G01*
G75*G03X517173Y139315I7874J0D01*G01*
G75*G03X524654Y146795I0J7480D01*G01*
G75*G03X516780Y154669I-7874J0D01*G01*
Y158606D02*G75*G03X504969Y146795I0J-11811D01*G01*
X528591D02*G75*G03X516780Y158606I-11811J0D01*G01*
X504969Y146795D02*G75*G03X516780Y134984I11811J0D01*G01*
G75*G03X528591Y146795I0J11811D01*G01*
X481958Y184486D02*X481972Y184472D01*
X475986Y184486D02*X481958D01*
X475972Y199472D02*X481972D01*
X475986Y184486D02*X475972Y184472D01*
Y199472D02*Y184472D01*
X481972Y199472D02*Y184472D01*
X478986Y199486D02*X478972Y199472D01*
X478986Y211986D02*Y199486D01*
Y184458D02*X478972Y184472D01*
X478986Y184458D02*Y171986D01*
X495958Y184486D02*X495972Y184472D01*
X489986Y184486D02*X495958D01*
X489972Y199472D02*X495972D01*
X489986Y184486D02*X489972Y184472D01*
Y199472D02*Y184472D01*
X495972Y199472D02*Y184472D01*
X492986Y199486D02*X492972Y199472D01*
X492986Y211986D02*Y199486D01*
Y184458D02*X492972Y184472D01*
X492986Y184458D02*Y171986D01*
X528000Y254000D02*Y270000D01*
X529000Y254000D02*Y270000D01*
Y254000D02*X526000D01*
X529000Y270000D02*X526000D01*
X527000Y254000D02*Y255000D01*
X528000Y256000D01*
X527000Y270000D02*X528000Y269000D01*
X517000Y274000D02*G75*G03X505000Y262000I0J-12000D01*G01*
G75*G03X517000Y250000I12000J0D01*G01*
X529000Y262000D02*G75*G03X517000Y274000I-12000J0D01*G01*
Y250000D02*G75*G03X529000Y262000I0J12000D01*G01*
X528000Y226000D02*Y242000D01*
X529000Y226000D02*Y242000D01*
Y226000D02*X526000D01*
X529000Y242000D02*X526000D01*
X527000Y226000D02*Y227000D01*
X528000Y228000D01*
X527000Y242000D02*X528000Y241000D01*
X517000Y246000D02*G75*G03X505000Y234000I0J-12000D01*G01*
G75*G03X517000Y222000I12000J0D01*G01*
X529000Y234000D02*G75*G03X517000Y246000I-12000J0D01*G01*
Y222000D02*G75*G03X529000Y234000I0J12000D01*G01*
X528000Y198000D02*Y214000D01*
X529000Y198000D02*Y214000D01*
Y198000D02*X526000D01*
X529000Y214000D02*X526000D01*
X527000Y198000D02*Y199000D01*
X528000Y200000D01*
X527000Y214000D02*X528000Y213000D01*
X517000Y218000D02*G75*G03X505000Y206000I0J-12000D01*G01*
G75*G03X517000Y194000I12000J0D01*G01*
X529000Y206000D02*G75*G03X517000Y218000I-12000J0D01*G01*
Y194000D02*G75*G03X529000Y206000I0J12000D01*G01*
X481972Y237472D02*X481986Y237458D01*
X476000Y237472D02*X481972D01*
X475986Y252458D02*X481986D01*
X476000Y237472D02*X475986Y237458D01*
Y252458D02*Y237458D01*
X481986Y252458D02*Y237458D01*
X479000Y252472D02*X478986Y252458D01*
X479000Y264972D02*Y252472D01*
Y237444D02*X478986Y237458D01*
X479000Y237444D02*Y224972D01*
X495972Y237500D02*X495986Y237486D01*
X490000Y237500D02*X495972D01*
X489986Y252486D02*X495986D01*
X490000Y237500D02*X489986Y237486D01*
Y252486D02*Y237486D01*
X495986Y252486D02*Y237486D01*
X493000Y252500D02*X492986Y252486D01*
X493000Y265000D02*Y252500D01*
Y237472D02*X492986Y237486D01*
X493000Y237472D02*Y225000D01*
X116780Y445921D02*Y442772D01*
X125047Y453795D02*X128591D01*
X116780Y462063D02*Y465606D01*
X109299Y453795D02*X105362D01*
X116780Y461669D02*G75*G03X109299Y454189I0J-7480D01*G01*
G75*G03X117173Y446315I7874J0D01*G01*
G75*G03X124654Y453795I0J7480D01*G01*
G75*G03X116780Y461669I-7874J0D01*G01*
Y465606D02*G75*G03X104969Y453795I0J-11811D01*G01*
X128591D02*G75*G03X116780Y465606I-11811J0D01*G01*
X104969Y453795D02*G75*G03X116780Y441984I11811J0D01*G01*
G75*G03X128591Y453795I0J11811D01*G01*
X167000Y384000D02*X179000D01*
Y466000D02*Y384000D01*
X167000Y466000D02*Y384000D01*
Y466000D02*X179000D01*
X192000Y394000D02*X204000D01*
Y466000D02*Y394000D01*
X192000Y466000D02*Y394000D01*
Y466000D02*X204000D01*
X217000Y394000D02*X229000D01*
Y466000D02*Y394000D01*
X217000Y466000D02*Y394000D01*
Y466000D02*X229000D01*
X242000Y394000D02*X254000D01*
Y466000D02*Y394000D01*
X242000Y466000D02*Y394000D01*
Y466000D02*X254000D01*
X142000Y414000D02*X154000D01*
Y466000D02*Y414000D01*
X142000Y466000D02*X154000D01*
X142000D02*Y414000D01*
X292000Y404000D02*X304000D01*
Y466000D02*Y404000D01*
X292000Y466000D02*Y404000D01*
Y466000D02*X304000D01*
X267000Y404000D02*X279000D01*
Y466000D02*Y404000D01*
X267000Y466000D02*Y404000D01*
Y466000D02*X279000D01*
X317000Y414000D02*X329000D01*
Y466000D02*Y414000D01*
X317000Y466000D02*X329000D01*
X317000D02*Y414000D01*
X266500Y365000D02*Y353000D01*
X348500D01*
X266500Y365000D02*X348500D01*
Y353000D01*
X286500Y387000D02*Y375000D01*
X338500D01*
Y387000D02*Y375000D01*
X286500Y387000D02*X338500D01*
X195000Y365000D02*Y353000D01*
X247000D01*
Y365000D02*Y353000D01*
X195000Y365000D02*X247000D01*
X194500Y383000D02*Y371000D01*
X246500D01*
Y383000D02*Y371000D01*
X194500Y383000D02*X246500D01*
X197000Y265000D02*Y345000D01*
X267000Y265000D02*Y345000D01*
X197000D02*X267000D01*
X197000Y265000D02*X267000D01*
X238000Y328000D02*X226000D01*
X228000Y330000D01*
X226000Y328000D02*X228000Y326000D01*
X275000Y265000D02*Y345000D01*
X345000Y265000D02*Y345000D01*
X275000D02*X345000D01*
X275000Y265000D02*X345000D01*
X316000Y328000D02*X304000D01*
X306000Y330000D01*
X304000Y328000D02*X306000Y326000D01*
X165000Y296500D02*Y281500D01*
Y296500D02*X173000D01*
Y281500D01*
X165000D02*X173000D01*
X166500Y291500D02*X171500D01*
X166500Y288500D02*X171500D01*
X169000Y289000D02*X171500Y291500D01*
X169000Y289000D02*X166500Y291500D01*
G54D88*X169000Y281000D02*Y269000D01*
Y309000D02*Y297000D01*
G54D87*Y288000D02*Y286500D01*
Y293500D02*Y292000D01*
X165000Y283500D02*X173000D01*
X165000Y284000D02*X172500D01*
X177500Y323500D02*X186500D01*
X177500Y264500D02*X186500D01*
Y323500D02*Y264500D01*
X177500Y323500D02*Y264500D01*
X103000Y403000D02*Y265500D01*
Y403000D02*X153000D01*
Y265500D02*Y403000D01*
X103000Y265500D02*X153000D01*
X406000Y370000D02*Y366500D01*
X406500Y366000D01*
X407500D01*
X408000Y366500D01*
Y370000D02*Y366500D01*
X409200Y369500D02*X409700Y370000D01*
X410700D01*
X411200Y369500D01*
X410700Y366000D02*X411200Y366500D01*
X409700Y366000D02*X410700D01*
X409200Y366500D02*X409700Y366000D01*
Y368200D02*X410700D01*
X411200Y369500D02*Y368700D01*
Y367700D02*Y366500D01*
Y367700D02*X410700Y368200D01*
X411200Y368700D02*X410700Y368200D01*
X429500Y325500D02*Y322000D01*
X430000Y321500D01*
X431000D01*
X431500Y322000D01*
Y325500D02*Y322000D01*
X432700Y323000D02*X434700Y325500D01*
X432700Y323000D02*X435200D01*
X434700Y325500D02*Y321500D01*
X466000Y345000D02*Y344200D01*
Y345000D02*X469500D01*
X470000Y344500D02*X469500Y345000D01*
X470000Y344500D02*Y344000D01*
X469500Y343500D02*X470000Y344000D01*
X469000Y343500D02*X469500D01*
X466000Y348200D02*Y346200D01*
X468000D01*
X467500Y346700D01*
Y347700D02*Y346700D01*
Y347700D02*X468000Y348200D01*
X469500D01*
X470000Y347700D02*X469500Y348200D01*
X470000Y347700D02*Y346700D01*
X469500Y346200D02*X470000Y346700D01*
X466000Y310000D02*Y309200D01*
Y310000D02*X469500D01*
X470000Y309500D02*X469500Y310000D01*
X470000Y309500D02*Y309000D01*
X469500Y308500D02*X470000Y309000D01*
X469000Y308500D02*X469500D01*
X468500Y311200D02*X466000Y313200D01*
X468500Y313700D02*Y311200D01*
X466000Y313200D02*X470000D01*
X514500Y257000D02*Y253000D01*
X515800Y257000D02*X516500Y256300D01*
Y253700D01*
X515800Y253000D02*X516500Y253700D01*
X514000Y253000D02*X515800D01*
X514000Y257000D02*X515800D01*
X517700Y254500D02*X519700Y257000D01*
X517700Y254500D02*X520200D01*
X519700Y257000D02*Y253000D01*
X476986Y243958D02*Y241958D01*
Y243958D02*X477486Y244458D01*
X478486D01*
X478986Y243958D02*X478486Y244458D01*
X478986Y243958D02*Y242458D01*
X476986D02*X480986D01*
X478986Y243258D02*X480986Y244458D01*
X479486Y245658D02*X476986Y247658D01*
X479486Y248158D02*Y245658D01*
X476986Y247658D02*X480986D01*
X490986Y243986D02*Y241986D01*
Y243986D02*X491486Y244486D01*
X492486D01*
X492986Y243986D02*X492486Y244486D01*
X492986Y243986D02*Y242486D01*
X490986D02*X494986D01*
X492986Y243286D02*X494986Y244486D01*
X491486Y245686D02*X490986Y246186D01*
Y247186D02*Y246186D01*
Y247186D02*X491486Y247686D01*
X494986Y247186D02*X494486Y247686D01*
X494986Y247186D02*Y246186D01*
X494486Y245686D02*X494986Y246186D01*
X492786Y247186D02*Y246186D01*
X491486Y247686D02*X492286D01*
X493286D02*X494486D01*
X493286D02*X492786Y247186D01*
X492286Y247686D02*X492786Y247186D01*
X404972Y301972D02*Y299972D01*
Y301972D02*X405472Y302472D01*
X406472D01*
X406972Y301972D02*X406472Y302472D01*
X406972Y301972D02*Y300472D01*
X404972D02*X408972D01*
X406972Y301272D02*X408972Y302472D01*
Y304172D02*X406972Y305672D01*
X405472D02*X406972D01*
X404972Y305172D02*X405472Y305672D01*
X404972Y305172D02*Y304172D01*
X405472Y303672D02*X404972Y304172D01*
X405472Y303672D02*X406472D01*
X406972Y304172D01*
Y305672D02*Y304172D01*
X414500Y202000D02*Y198500D01*
X415000Y198000D01*
X416000D01*
X416500Y198500D01*
Y202000D02*Y198500D01*
X417700Y201500D02*X418200Y202000D01*
X419700D01*
X420200Y201500D01*
Y200500D01*
X417700Y198000D02*X420200Y200500D01*
X417700Y198000D02*X420200D01*
X514500Y172000D02*Y168000D01*
X515800Y172000D02*X516500Y171300D01*
Y168700D01*
X515800Y168000D02*X516500Y168700D01*
X514000Y168000D02*X515800D01*
X514000Y172000D02*X515800D01*
X517700Y171200D02*X518500Y172000D01*
Y168000D01*
X517700D02*X519200D01*
X514500Y201000D02*Y197000D01*
X515800Y201000D02*X516500Y200300D01*
Y197700D01*
X515800Y197000D02*X516500Y197700D01*
X514000Y197000D02*X515800D01*
X514000Y201000D02*X515800D01*
X517700Y200500D02*X518200Y201000D01*
X519700D01*
X520200Y200500D01*
Y199500D01*
X517700Y197000D02*X520200Y199500D01*
X517700Y197000D02*X520200D01*
X476972Y190972D02*Y188972D01*
Y190972D02*X477472Y191472D01*
X478472D01*
X478972Y190972D02*X478472Y191472D01*
X478972Y190972D02*Y189472D01*
X476972D02*X480972D01*
X478972Y190272D02*X480972Y191472D01*
X477472Y192672D02*X476972Y193172D01*
Y194672D02*Y193172D01*
Y194672D02*X477472Y195172D01*
X478472D01*
X480972Y192672D02*X478472Y195172D01*
X480972D02*Y192672D01*
X490972Y190972D02*Y188972D01*
Y190972D02*X491472Y191472D01*
X492472D01*
X492972Y190972D02*X492472Y191472D01*
X492972Y190972D02*Y189472D01*
X490972D02*X494972D01*
X492972Y190272D02*X494972Y191472D01*
X491772Y192672D02*X490972Y193472D01*
X494972D01*
Y194172D02*Y192672D01*
X171000Y375000D02*Y374200D01*
Y375000D02*X174500D01*
X175000Y374500D02*X174500Y375000D01*
X175000Y374500D02*Y374000D01*
X174500Y373500D02*X175000Y374000D01*
X174000Y373500D02*X174500D01*
X171500Y376200D02*X171000Y376700D01*
Y378200D02*Y376700D01*
Y378200D02*X171500Y378700D01*
X172500D01*
X175000Y376200D02*X172500Y378700D01*
X175000D02*Y376200D01*
X174500Y379900D02*X175000Y380400D01*
X171500Y379900D02*X174500D01*
X171500D02*X171000Y380400D01*
Y381400D02*Y380400D01*
Y381400D02*X171500Y381900D01*
X174500D01*
X175000Y381400D02*X174500Y381900D01*
X175000Y381400D02*Y380400D01*
X174000Y379900D02*X172000Y381900D01*
X145000Y406000D02*Y405200D01*
Y406000D02*X148500D01*
X149000Y405500D02*X148500Y406000D01*
X149000Y405500D02*Y405000D01*
X148500Y404500D02*X149000Y405000D01*
X148000Y404500D02*X148500D01*
X145500Y407200D02*X145000Y407700D01*
Y409200D02*Y407700D01*
Y409200D02*X145500Y409700D01*
X146500D01*
X149000Y407200D02*X146500Y409700D01*
X149000D02*Y407200D01*
X145800Y410900D02*X145000Y411700D01*
X149000D01*
Y412400D02*Y410900D01*
X167000Y314500D02*X171000D01*
X167000Y315800D02*X167700Y316500D01*
X170300D01*
X171000Y315800D02*X170300Y316500D01*
X171000Y315800D02*Y314000D01*
X167000Y315800D02*Y314000D01*
Y319200D02*X167500Y319700D01*
X167000Y319200D02*Y318200D01*
X167500Y317700D02*X167000Y318200D01*
X167500Y317700D02*X170500D01*
X171000Y318200D01*
X168800Y319200D02*X169300Y319700D01*
X168800Y319200D02*Y317700D01*
X171000Y319200D02*Y318200D01*
Y319200D02*X170500Y319700D01*
X169300D02*X170500D01*
X179356Y326436D02*Y325636D01*
Y326436D02*X182856D01*
X183356Y325936D02*X182856Y326436D01*
X183356Y325936D02*Y325436D01*
X182856Y324936D02*X183356Y325436D01*
X182356Y324936D02*X182856D01*
X179856Y327636D02*X179356Y328136D01*
Y329636D02*Y328136D01*
Y329636D02*X179856Y330136D01*
X180856D01*
X183356Y327636D02*X180856Y330136D01*
X183356D02*Y327636D01*
X229000Y303000D02*Y299500D01*
X229500Y299000D01*
X230500D01*
X231000Y299500D01*
Y303000D02*Y299500D01*
X232200Y303000D02*X234200D01*
X232200D02*Y301000D01*
X232700Y301500D01*
X233700D01*
X234200Y301000D01*
Y299500D01*
X233700Y299000D02*X234200Y299500D01*
X232700Y299000D02*X233700D01*
X232200Y299500D02*X232700Y299000D01*
X514500Y229000D02*Y225000D01*
X515800Y229000D02*X516500Y228300D01*
Y225700D01*
X515800Y225000D02*X516500Y225700D01*
X514000Y225000D02*X515800D01*
X514000Y229000D02*X515800D01*
X517700Y228500D02*X518200Y229000D01*
X519200D01*
X519700Y228500D01*
X519200Y225000D02*X519700Y225500D01*
X518200Y225000D02*X519200D01*
X517700Y225500D02*X518200Y225000D01*
Y227200D02*X519200D01*
X519700Y228500D02*Y227700D01*
Y226700D02*Y225500D01*
Y226700D02*X519200Y227200D01*
X519700Y227700D02*X519200Y227200D01*
X466000Y415000D02*Y414200D01*
Y415000D02*X469500D01*
X470000Y414500D02*X469500Y415000D01*
X470000Y414500D02*Y414000D01*
X469500Y413500D02*X470000Y414000D01*
X469000Y413500D02*X469500D01*
X470000Y416700D02*X466000Y418700D01*
Y416200D01*
Y380000D02*Y379200D01*
Y380000D02*X469500D01*
X470000Y379500D02*X469500Y380000D01*
X470000Y379500D02*Y379000D01*
X469500Y378500D02*X470000Y379000D01*
X469000Y378500D02*X469500D01*
X466000Y382700D02*X466500Y383200D01*
X466000Y382700D02*Y381700D01*
X466500Y381200D02*X466000Y381700D01*
X466500Y381200D02*X469500D01*
X470000Y381700D01*
X467800Y382700D02*X468300Y383200D01*
X467800Y382700D02*Y381200D01*
X470000Y382700D02*Y381700D01*
Y382700D02*X469500Y383200D01*
X468300D02*X469500D01*
X489000Y428500D02*Y427700D01*
Y428500D02*X492500D01*
X493000Y428000D02*X492500Y428500D01*
X493000Y428000D02*Y427500D01*
X492500Y427000D02*X493000Y427500D01*
X492000Y427000D02*X492500D01*
Y429700D02*X493000Y430200D01*
X491700Y429700D02*X492500D01*
X491700D02*X491000Y430400D01*
Y431000D02*Y430400D01*
Y431000D02*X491700Y431700D01*
X492500D01*
X493000Y431200D02*X492500Y431700D01*
X493000Y431200D02*Y430200D01*
X490300Y429700D02*X491000Y430400D01*
X489500Y429700D02*X490300D01*
X489500D02*X489000Y430200D01*
Y431200D02*Y430200D01*
Y431200D02*X489500Y431700D01*
X490300D01*
X491000Y431000D02*X490300Y431700D01*
X464000Y428500D02*Y427700D01*
Y428500D02*X467500D01*
X468000Y428000D02*X467500Y428500D01*
X468000Y428000D02*Y427500D01*
X467500Y427000D02*X468000Y427500D01*
X467000Y427000D02*X467500D01*
X468000Y430200D02*X466000Y431700D01*
X464500D02*X466000D01*
X464000Y431200D02*X464500Y431700D01*
X464000Y431200D02*Y430200D01*
X464500Y429700D02*X464000Y430200D01*
X464500Y429700D02*X465500D01*
X466000Y430200D01*
Y431700D02*Y430200D01*
X439000Y426000D02*Y425200D01*
Y426000D02*X442500D01*
X443000Y425500D02*X442500Y426000D01*
X443000Y425500D02*Y425000D01*
X442500Y424500D02*X443000Y425000D01*
X442000Y424500D02*X442500D01*
X439800Y427200D02*X439000Y428000D01*
X443000D01*
Y428700D02*Y427200D01*
X442500Y429900D02*X443000Y430400D01*
X439500Y429900D02*X442500D01*
X439500D02*X439000Y430400D01*
Y431400D02*Y430400D01*
Y431400D02*X439500Y431900D01*
X442500D01*
X443000Y431400D02*X442500Y431900D01*
X443000Y431400D02*Y430400D01*
X442000Y429900D02*X440000Y431900D01*
X414000Y426500D02*Y425700D01*
Y426500D02*X417500D01*
X418000Y426000D02*X417500Y426500D01*
X418000Y426000D02*Y425500D01*
X417500Y425000D02*X418000Y425500D01*
X417000Y425000D02*X417500D01*
X414800Y427700D02*X414000Y428500D01*
X418000D01*
Y429200D02*Y427700D01*
X414800Y430400D02*X414000Y431200D01*
X418000D01*
Y431900D02*Y430400D01*
X296000Y396000D02*Y395200D01*
Y396000D02*X299500D01*
X300000Y395500D02*X299500Y396000D01*
X300000Y395500D02*Y395000D01*
X299500Y394500D02*X300000Y395000D01*
X299000Y394500D02*X299500D01*
X296800Y397200D02*X296000Y398000D01*
X300000D01*
Y398700D02*Y397200D01*
X296000Y401900D02*Y399900D01*
X298000D01*
X297500Y400400D01*
Y401400D02*Y400400D01*
Y401400D02*X298000Y401900D01*
X299500D01*
X300000Y401400D02*X299500Y401900D01*
X300000Y401400D02*Y400400D01*
X299500Y399900D02*X300000Y400400D01*
X271000Y396000D02*Y395200D01*
Y396000D02*X274500D01*
X275000Y395500D02*X274500Y396000D01*
X275000Y395500D02*Y395000D01*
X274500Y394500D02*X275000Y395000D01*
X274000Y394500D02*X274500D01*
X271800Y397200D02*X271000Y398000D01*
X275000D01*
Y398700D02*Y397200D01*
X271000Y401400D02*X271500Y401900D01*
X271000Y401400D02*Y400400D01*
X271500Y399900D02*X271000Y400400D01*
X271500Y399900D02*X274500D01*
X275000Y400400D01*
X272800Y401400D02*X273300Y401900D01*
X272800Y401400D02*Y399900D01*
X275000Y401400D02*Y400400D01*
Y401400D02*X274500Y401900D01*
X273300D02*X274500D01*
X321000Y405500D02*Y404700D01*
Y405500D02*X324500D01*
X325000Y405000D02*X324500Y405500D01*
X325000Y405000D02*Y404500D01*
X324500Y404000D02*X325000Y404500D01*
X324000Y404000D02*X324500D01*
X321800Y406700D02*X321000Y407500D01*
X325000D01*
Y408200D02*Y406700D01*
X323500Y409400D02*X321000Y411400D01*
X323500Y411900D02*Y409400D01*
X321000Y411400D02*X325000D01*
X307000Y303000D02*Y299500D01*
X307500Y299000D01*
X308500D01*
X309000Y299500D01*
Y303000D02*Y299500D01*
X311700Y303000D02*X312200Y302500D01*
X310700Y303000D02*X311700D01*
X310200Y302500D02*X310700Y303000D01*
X310200Y302500D02*Y299500D01*
X310700Y299000D01*
X311700Y301200D02*X312200Y300700D01*
X310200Y301200D02*X311700D01*
X310700Y299000D02*X311700D01*
X312200Y299500D01*
Y300700D02*Y299500D01*
X389000Y425500D02*Y424700D01*
Y425500D02*X392500D01*
X393000Y425000D02*X392500Y425500D01*
X393000Y425000D02*Y424500D01*
X392500Y424000D02*X393000Y424500D01*
X392000Y424000D02*X392500D01*
X389800Y426700D02*X389000Y427500D01*
X393000D01*
Y428200D02*Y426700D01*
X389500Y429400D02*X389000Y429900D01*
Y431400D02*Y429900D01*
Y431400D02*X389500Y431900D01*
X390500D01*
X393000Y429400D02*X390500Y431900D01*
X393000D02*Y429400D01*
X393972Y301972D02*Y299972D01*
Y301972D02*X394472Y302472D01*
X395472D01*
X395972Y301972D02*X395472Y302472D01*
X395972Y301972D02*Y300472D01*
X393972D02*X397972D01*
X395972Y301272D02*X397972Y302472D01*
X397472Y303672D02*X397972Y304172D01*
X396672Y303672D02*X397472D01*
X396672D02*X395972Y304372D01*
Y304972D02*Y304372D01*
Y304972D02*X396672Y305672D01*
X397472D01*
X397972Y305172D02*X397472Y305672D01*
X397972Y305172D02*Y304172D01*
X395272Y303672D02*X395972Y304372D01*
X394472Y303672D02*X395272D01*
X394472D02*X393972Y304172D01*
Y305172D02*Y304172D01*
Y305172D02*X394472Y305672D01*
X395272D01*
X395972Y304972D02*X395272Y305672D01*
X364000Y426000D02*Y425200D01*
Y426000D02*X367500D01*
X368000Y425500D02*X367500Y426000D01*
X368000Y425500D02*Y425000D01*
X367500Y424500D02*X368000Y425000D01*
X367000Y424500D02*X367500D01*
X364800Y427200D02*X364000Y428000D01*
X368000D01*
Y428700D02*Y427200D01*
X364500Y429900D02*X364000Y430400D01*
Y431400D02*Y430400D01*
Y431400D02*X364500Y431900D01*
X368000Y431400D02*X367500Y431900D01*
X368000Y431400D02*Y430400D01*
X367500Y429900D02*X368000Y430400D01*
X365800Y431400D02*Y430400D01*
X364500Y431900D02*X365300D01*
X366300D02*X367500D01*
X366300D02*X365800Y431400D01*
X365300Y431900D02*X365800Y431400D01*
X350700Y361000D02*X351500D01*
Y357500D01*
X351000Y357000D02*X351500Y357500D01*
X350500Y357000D02*X351000D01*
X350000Y357500D02*X350500Y357000D01*
X350000Y358000D02*Y357500D01*
X352700Y360500D02*X353200Y361000D01*
X354700D01*
X355200Y360500D01*
Y359500D01*
X352700Y357000D02*X355200Y359500D01*
X352700Y357000D02*X355200D01*
X356400Y361000D02*X358400D01*
X356400D02*Y359000D01*
X356900Y359500D01*
X357900D01*
X358400Y359000D01*
Y357500D01*
X357900Y357000D02*X358400Y357500D01*
X356900Y357000D02*X357900D01*
X356400Y357500D02*X356900Y357000D01*
X195500Y386000D02*Y385200D01*
Y386000D02*X199000D01*
X199500Y385500D02*X199000Y386000D01*
X199500Y385500D02*Y385000D01*
X199000Y384500D02*X199500Y385000D01*
X198500Y384500D02*X199000D01*
X196300Y387200D02*X195500Y388000D01*
X199500D01*
Y388700D02*Y387200D01*
Y390400D02*X197500Y391900D01*
X196000D02*X197500D01*
X195500Y391400D02*X196000Y391900D01*
X195500Y391400D02*Y390400D01*
X196000Y389900D02*X195500Y390400D01*
X196000Y389900D02*X197000D01*
X197500Y390400D01*
Y391900D02*Y390400D01*
X221000Y386000D02*Y385200D01*
Y386000D02*X224500D01*
X225000Y385500D02*X224500Y386000D01*
X225000Y385500D02*Y385000D01*
X224500Y384500D02*X225000Y385000D01*
X224000Y384500D02*X224500D01*
X221800Y387200D02*X221000Y388000D01*
X225000D01*
Y388700D02*Y387200D01*
X224500Y389900D02*X225000Y390400D01*
X223700Y389900D02*X224500D01*
X223700D02*X223000Y390600D01*
Y391200D02*Y390600D01*
Y391200D02*X223700Y391900D01*
X224500D01*
X225000Y391400D02*X224500Y391900D01*
X225000Y391400D02*Y390400D01*
X222300Y389900D02*X223000Y390600D01*
X221500Y389900D02*X222300D01*
X221500D02*X221000Y390400D01*
Y391400D02*Y390400D01*
Y391400D02*X221500Y391900D01*
X222300D01*
X223000Y391200D02*X222300Y391900D01*
X246000Y385500D02*Y384700D01*
Y385500D02*X249500D01*
X250000Y385000D02*X249500Y385500D01*
X250000Y385000D02*Y384500D01*
X249500Y384000D02*X250000Y384500D01*
X249000Y384000D02*X249500D01*
X246800Y386700D02*X246000Y387500D01*
X250000D01*
Y388200D02*Y386700D01*
Y389900D02*X246000Y391900D01*
Y389400D01*
X249700Y361000D02*X250500D01*
Y357500D01*
X250000Y357000D02*X250500Y357500D01*
X249500Y357000D02*X250000D01*
X249000Y357500D02*X249500Y357000D01*
X249000Y358000D02*Y357500D01*
X251700Y360500D02*X252200Y361000D01*
X253700D01*
X254200Y360500D01*
Y359500D01*
X251700Y357000D02*X254200Y359500D01*
X251700Y357000D02*X254200D01*
X255400Y360500D02*X255900Y361000D01*
X256900D01*
X257400Y360500D01*
X256900Y357000D02*X257400Y357500D01*
X255900Y357000D02*X256900D01*
X255400Y357500D02*X255900Y357000D01*
Y359200D02*X256900D01*
X257400Y360500D02*Y359700D01*
Y358700D02*Y357500D01*
Y358700D02*X256900Y359200D01*
X257400Y359700D02*X256900Y359200D01*
X249700Y380000D02*X250500D01*
Y376500D01*
X250000Y376000D02*X250500Y376500D01*
X249500Y376000D02*X250000D01*
X249000Y376500D02*X249500Y376000D01*
X249000Y377000D02*Y376500D01*
X251700Y379500D02*X252200Y380000D01*
X253700D01*
X254200Y379500D01*
Y378500D01*
X251700Y376000D02*X254200Y378500D01*
X251700Y376000D02*X254200D01*
X255400Y379500D02*X255900Y380000D01*
X257400D01*
X257900Y379500D01*
Y378500D01*
X255400Y376000D02*X257900Y378500D01*
X255400Y376000D02*X257900D01*
X340700Y383500D02*X341500D01*
Y380000D01*
X341000Y379500D02*X341500Y380000D01*
X340500Y379500D02*X341000D01*
X340000Y380000D02*X340500Y379500D01*
X340000Y380500D02*Y380000D01*
X342700Y383000D02*X343200Y383500D01*
X344700D01*
X345200Y383000D01*
Y382000D01*
X342700Y379500D02*X345200Y382000D01*
X342700Y379500D02*X345200D01*
X346400Y381000D02*X348400Y383500D01*
X346400Y381000D02*X348900D01*
X348400Y383500D02*Y379500D01*
X222000Y224500D02*Y221000D01*
X222500Y220500D01*
X223500D01*
X224000Y221000D01*
Y224500D02*Y221000D01*
X225200Y223700D02*X226000Y224500D01*
Y220500D01*
X225200D02*X226700D01*
X135986Y209014D02*X137986D01*
X138486Y208514D01*
Y207514D01*
X137986Y207014D02*X138486Y207514D01*
X136486Y207014D02*X137986D01*
X136486Y209014D02*Y205014D01*
X137286Y207014D02*X138486Y205014D01*
X141186Y209014D02*X141686Y208514D01*
X140186Y209014D02*X141186D01*
X139686Y208514D02*X140186Y209014D01*
X139686Y208514D02*Y205514D01*
X140186Y205014D01*
X141186Y207214D02*X141686Y206714D01*
X139686Y207214D02*X141186D01*
X140186Y205014D02*X141186D01*
X141686Y205514D01*
Y206714D02*Y205514D01*
X136000Y221000D02*X138000D01*
X138500Y220500D01*
Y219500D01*
X138000Y219000D02*X138500Y219500D01*
X136500Y219000D02*X138000D01*
X136500Y221000D02*Y217000D01*
X137300Y219000D02*X138500Y217000D01*
X140200D02*X142200Y221000D01*
X139700D02*X142200D01*
X322500Y145000D02*Y141000D01*
X324500D01*
X327700Y145000D02*X328200Y144500D01*
X326200Y145000D02*X327700D01*
X325700Y144500D02*X326200Y145000D01*
X325700Y144500D02*Y143500D01*
X326200Y143000D01*
X327700D01*
X328200Y142500D01*
Y141500D01*
X327700Y141000D02*X328200Y141500D01*
X326200Y141000D02*X327700D01*
X325700Y141500D02*X326200Y141000D01*
X273500Y144500D02*Y140500D01*
X274800Y144500D02*X275500Y143800D01*
Y141200D01*
X274800Y140500D02*X275500Y141200D01*
X273000Y140500D02*X274800D01*
X273000Y144500D02*X274800D01*
X276700D02*X278700D01*
X276700D02*Y142500D01*
X277200Y143000D01*
X278200D01*
X278700Y142500D01*
Y141000D01*
X278200Y140500D02*X278700Y141000D01*
X277200Y140500D02*X278200D01*
X276700Y141000D02*X277200Y140500D01*
X294000Y167500D02*X296000D01*
X296500Y167000D01*
Y166000D01*
X296000Y165500D02*X296500Y166000D01*
X294500Y165500D02*X296000D01*
X294500Y167500D02*Y163500D01*
X295300Y165500D02*X296500Y163500D01*
X297700Y166700D02*X298500Y167500D01*
Y163500D01*
X297700D02*X299200D01*
X300400Y166700D02*X301200Y167500D01*
Y163500D01*
X300400D02*X301900D01*
X135385Y162500D02*X136185D01*
Y159000D01*
X135685Y158500D02*X136185Y159000D01*
X135185Y158500D02*X135685D01*
X134685Y159000D02*X135185Y158500D01*
X134685Y159500D02*Y159000D01*
X137385Y162000D02*X137885Y162500D01*
X138885D01*
X139385Y162000D01*
X138885Y158500D02*X139385Y159000D01*
X137885Y158500D02*X138885D01*
X137385Y159000D02*X137885Y158500D01*
Y160700D02*X138885D01*
X139385Y162000D02*Y161200D01*
Y160200D02*Y159000D01*
Y160200D02*X138885Y160700D01*
X139385Y161200D02*X138885Y160700D01*
X304000Y184000D02*X306000D01*
X306500Y183500D01*
Y182500D01*
X306000Y182000D02*X306500Y182500D01*
X304500Y182000D02*X306000D01*
X304500Y184000D02*Y180000D01*
X305300Y182000D02*X306500Y180000D01*
X307700Y183200D02*X308500Y184000D01*
Y180000D01*
X307700D02*X309200D01*
X310400Y180500D02*X310900Y180000D01*
X310400Y183500D02*Y180500D01*
Y183500D02*X310900Y184000D01*
X311900D01*
X312400Y183500D01*
Y180500D01*
X311900Y180000D02*X312400Y180500D01*
X310900Y180000D02*X311900D01*
X310400Y181000D02*X312400Y183000D01*
X361500Y174500D02*Y171500D01*
Y174500D02*X362000Y175000D01*
X363000D01*
X363500Y174500D01*
Y172000D01*
X362500Y171000D02*X363500Y172000D01*
X362000Y171000D02*X362500D01*
X361500Y171500D02*X362000Y171000D01*
X362500Y172500D02*X363500Y171000D01*
X364700Y174200D02*X365500Y175000D01*
Y171000D01*
X364700D02*X366200D01*
M02*
