G04 start of page 9 for group -4078 idx -4078 *
G04 Title: (unknown), bottomsilk *
G04 Creator: pcb 20140316 *
G04 CreationDate: Thu Dec 21 20:14:05 2017 UTC *
G04 For: frankenteddy *
G04 Format: Gerber/RS-274X *
G04 PCB-Dimensions (mil): 6000.00 5000.00 *
G04 PCB-Coordinate-Origin: lower left *
%MOIN*%
%FSLAX25Y25*%
%LNBOTTOMSILK*%
%ADD92C,0.0104*%
%ADD91C,0.0100*%
%ADD90C,0.0080*%
%ADD89C,0.0001*%
G54D89*G36*
X442669Y437032D02*X448262D01*
X448448Y436962D01*
X448550Y436794D01*
X448648Y436278D01*
X448695Y436034D01*
X448740Y435789D01*
X449597Y431167D01*
X449700Y430973D01*
X449879Y430848D01*
X450106Y430755D01*
X451818Y430162D01*
X453444Y429394D01*
X453455Y429382D01*
X453644Y429306D01*
X453862Y429271D01*
X454073Y429339D01*
X457930Y431987D01*
X458129Y432125D01*
X458331Y432263D01*
X458772Y432562D01*
X458962Y432610D01*
X459140Y432530D01*
X459515Y432149D01*
X459862Y431813D01*
X460947Y430728D01*
X461294Y430375D01*
X462379Y429296D01*
X462726Y428944D01*
X463101Y428574D01*
X463183Y428389D01*
X463138Y428195D01*
X462836Y427760D01*
X462694Y427556D01*
X462552Y427353D01*
X459970Y423577D01*
X459904Y423371D01*
X459938Y423160D01*
X460030Y422948D01*
X460872Y421255D01*
X461522Y419460D01*
X461609Y419270D01*
X461737Y419092D01*
X461934Y418994D01*
X466362Y418174D01*
X466602Y418125D01*
X466844Y418081D01*
X467370Y417984D01*
X467536Y417881D01*
X467604Y417696D01*
Y412098D01*
X467536Y411910D01*
X467370Y411805D01*
X466844Y411712D01*
X466602Y411669D01*
X466362Y411620D01*
X462059Y410817D01*
X461872Y410717D01*
X461750Y410541D01*
X461695Y410399D01*
X461690Y410378D01*
X461033Y408392D01*
X460144Y406525D01*
X460127Y406503D01*
X460090Y406406D01*
X460055Y406191D01*
X460122Y405982D01*
X462563Y402435D01*
X462700Y402232D01*
X462836Y402034D01*
X463138Y401594D01*
X463183Y401400D01*
X463101Y401220D01*
X462726Y400839D01*
X461294Y399407D01*
X460947Y399066D01*
X459862Y397987D01*
X459515Y397634D01*
X459140Y397264D01*
X458962Y397181D01*
X458772Y397227D01*
X458331Y397531D01*
X458129Y397666D01*
X457930Y397802D01*
X454458Y400184D01*
X454250Y400244D01*
X454040Y400199D01*
X453319Y399798D01*
X453104Y399682D01*
X452890Y399570D01*
X452136Y399180D01*
X451955Y399167D01*
X451827Y399294D01*
X451506Y400075D01*
X451413Y400300D01*
X451318Y400525D01*
X448311Y407812D01*
X448213Y408031D01*
X448122Y408256D01*
X447909Y408771D01*
X447901Y408971D01*
X448019Y409130D01*
X448495Y409417D01*
X448648Y409524D01*
X448800Y409650D01*
X449970Y410621D01*
X450872Y411846D01*
X451450Y413275D01*
X451654Y414859D01*
X451529Y416106D01*
X451168Y417269D01*
X450598Y418321D01*
X449843Y419239D01*
X448927Y419996D01*
X447877Y420567D01*
X446716Y420930D01*
X445469Y421055D01*
X444222Y420930D01*
X443059Y420567D01*
X442008Y419996D01*
X441093Y419239D01*
X440336Y418321D01*
X439765Y417269D01*
X439405Y416106D01*
X439279Y414859D01*
X439483Y413275D01*
X440061Y411846D01*
X440961Y410621D01*
X442131Y409650D01*
X442284Y409524D01*
X442436Y409417D01*
X442913Y409130D01*
X443031Y408971D01*
X443027Y408771D01*
X442811Y408256D01*
X442718Y408031D01*
X442626Y407812D01*
X439615Y400525D01*
X439518Y400300D01*
X439425Y400075D01*
X439105Y399294D01*
X438976Y399167D01*
X438795Y399180D01*
X438047Y399570D01*
X437827Y399682D01*
X437612Y399798D01*
X436891Y400199D01*
X436681Y400244D01*
X436473Y400184D01*
X433001Y397802D01*
X432802Y397666D01*
X432600Y397531D01*
X432161Y397227D01*
X431969Y397181D01*
X431791Y397264D01*
X431416Y397634D01*
X431069Y397987D01*
X429984Y399066D01*
X429637Y399407D01*
X428205Y400839D01*
X427830Y401220D01*
X427748Y401400D01*
X427792Y401594D01*
X428097Y402034D01*
X428232Y402232D01*
X428373Y402435D01*
X430809Y405982D01*
X430879Y406191D01*
X430841Y406406D01*
X430787Y406542D01*
X429901Y408409D01*
X429241Y410394D01*
X429182Y410541D01*
X429061Y410717D01*
X428872Y410817D01*
X424570Y411620D01*
X424330Y411669D01*
X424087Y411712D01*
X423566Y411805D01*
X423396Y411910D01*
X423327Y412098D01*
Y417696D01*
X423396Y417881D01*
X423566Y417984D01*
X424087Y418081D01*
X424330Y418125D01*
X424570Y418174D01*
X429002Y418994D01*
X429195Y419092D01*
X429327Y419270D01*
X429409Y419460D01*
X430059Y421255D01*
X430901Y422948D01*
X430994Y423160D01*
X431030Y423371D01*
X430961Y423577D01*
X428379Y427353D01*
X428237Y427556D01*
X428097Y427760D01*
X427792Y428195D01*
X427748Y428389D01*
X427830Y428574D01*
X428205Y428944D01*
X428552Y429296D01*
X429637Y430375D01*
X429984Y430728D01*
X431069Y431813D01*
X431416Y432149D01*
X431791Y432530D01*
X431969Y432610D01*
X432161Y432562D01*
X432600Y432263D01*
X432802Y432125D01*
X433001Y431987D01*
X436863Y429339D01*
X437069Y429271D01*
X437287Y429306D01*
X437477Y429382D01*
X437493Y429394D01*
X439113Y430162D01*
X440825Y430755D01*
X441052Y430848D01*
X441231Y430973D01*
X441334Y431167D01*
X442191Y435789D01*
X442236Y436034D01*
X442284Y436278D01*
X442381Y436794D01*
X442483Y436962D01*
X442669Y437032D01*
G37*
G54D90*X208500Y162000D02*X217000D01*
X178000D02*X171000D01*
X189500D02*X198000D01*
X217000D02*Y146000D01*
X196500D02*Y162000D01*
X177000Y146000D02*Y162000D01*
X217000Y146000D02*X157500D01*
Y162000D01*
X161000D01*
X232500Y328500D02*Y315500D01*
X232000Y315000D01*
X228500D01*
X310000Y325500D02*Y314000D01*
X308000D01*
X310000Y325500D02*X291000D01*
Y314500D01*
X232500Y328500D02*X225000D01*
X222000Y323000D02*Y316500D01*
X145500Y373000D02*X117500D01*
Y399000D01*
X137500D01*
X144500Y339500D02*X117500D01*
Y369000D01*
X140500D01*
X151000Y358000D02*Y346000D01*
X152000Y390000D02*Y379500D01*
X145500Y373000D01*
X151000Y346000D02*X144500Y339500D01*
X117500Y336000D02*X142500D01*
X117500Y306500D02*Y336000D01*
X144500Y306500D02*X117500D01*
X151000Y323500D02*Y313000D01*
X144500Y306500D01*
X117500Y298000D02*X147500D01*
X152500Y293000D01*
X117500Y260500D02*Y298000D01*
X152500Y293000D02*Y279000D01*
X117500Y260500D02*X152500D01*
G54D91*X415500Y184270D02*X419680D01*
X417590Y182180D02*Y186360D01*
X499360Y136402D02*X501780D01*
X499360D02*X498755Y137007D01*
Y138459D01*
X499360Y139064D02*X498755Y138459D01*
X499360Y139064D02*X501175D01*
Y136402D02*Y141242D01*
X499360D02*X501780D01*
X499360D02*X498755Y140637D01*
Y139669D02*Y140637D01*
X499360Y139064D02*X498755Y139669D01*
X497303Y137007D02*Y138217D01*
X496698Y138822D01*
X495488D02*X496698D01*
X495488D02*X494883Y138217D01*
Y137007D02*Y138217D01*
X495488Y136402D02*X494883Y137007D01*
X495488Y136402D02*X496698D01*
X497303Y137007D02*X496698Y136402D01*
X493431Y137007D02*Y138822D01*
Y137007D02*X492826Y136402D01*
X492221D02*X492826D01*
X492221D02*X491616Y137007D01*
Y138822D01*
Y137007D02*X491011Y136402D01*
X490406D02*X491011D01*
X490406D02*X489801Y137007D01*
Y138822D01*
X488349Y139911D02*Y140032D01*
Y136402D02*Y138217D01*
X484719Y136402D02*X486534D01*
X487139Y137007D02*X486534Y136402D01*
X487139Y137007D02*Y138217D01*
X486534Y138822D01*
X485324D02*X486534D01*
X485324D02*X484719Y138217D01*
Y137612D02*X487139D01*
X484719D02*Y138217D01*
X478669Y136402D02*X481089D01*
X478669D02*X478064Y137007D01*
Y138459D01*
X478669Y139064D02*X478064Y138459D01*
X478669Y139064D02*X480484D01*
Y136402D02*Y141242D01*
X478669D02*X481089D01*
X478669D02*X478064Y140637D01*
Y139669D02*Y140637D01*
X478669Y139064D02*X478064Y139669D01*
X476007Y136402D02*Y138217D01*
X475402Y138822D01*
X474192D02*X475402D01*
X476612D02*X476007Y138217D01*
X470925Y138822D02*X470320Y138217D01*
X470925Y138822D02*X472135D01*
X472740Y138217D02*X472135Y138822D01*
X472740Y137007D02*Y138217D01*
Y137007D02*X472135Y136402D01*
X470320Y137007D02*Y138822D01*
Y137007D02*X469715Y136402D01*
X470925D02*X472135D01*
X470925D02*X470320Y137007D01*
X468263Y139911D02*Y140032D01*
Y136402D02*Y138217D01*
X466448Y136402D02*Y138217D01*
X465843Y138822D01*
X465238D02*X465843D01*
X465238D02*X464633Y138217D01*
Y136402D02*Y138217D01*
X467053Y138822D02*X466448Y138217D01*
X461003Y138822D02*X459793Y136402D01*
X458583Y138822D02*X459793Y136402D01*
X457131Y140274D02*X456163Y141242D01*
Y136402D02*Y141242D01*
X455316Y136402D02*X457131D01*
X453259D02*X453864D01*
X451807Y140274D02*X450839Y141242D01*
Y136402D02*Y141242D01*
X449992Y136402D02*X451807D01*
X443942Y138822D02*X446362D01*
X439707Y136402D02*Y141242D01*
X438134D02*X437287Y140395D01*
Y137249D02*Y140395D01*
X438134Y136402D02*X437287Y137249D01*
X438134Y136402D02*X440312D01*
X438134Y141242D02*X440312D01*
X433415Y136402D02*X435230D01*
X435835Y137007D02*X435230Y136402D01*
X435835Y137007D02*Y138217D01*
X435230Y138822D01*
X434020D02*X435230D01*
X434020D02*X433415Y138217D01*
Y137612D02*X435835D01*
X433415D02*Y138217D01*
X429543Y138822D02*X431358D01*
X431963Y138217D02*X431358Y138822D01*
X431963Y137007D02*Y138217D01*
Y137007D02*X431358Y136402D01*
X429543D02*X431358D01*
X427486D02*X428091D01*
X423856Y140637D02*X423251Y141242D01*
X421436D02*X423251D01*
X421436D02*X420831Y140637D01*
Y139427D02*Y140637D01*
X423856Y136402D02*X420831Y139427D01*
Y136402D02*X423856D01*
X419379Y137007D02*X418774Y136402D01*
X419379Y137007D02*Y140637D01*
X418774Y141242D01*
X417564D02*X418774D01*
X417564D02*X416959Y140637D01*
Y137007D02*Y140637D01*
X417564Y136402D02*X416959Y137007D01*
X417564Y136402D02*X418774D01*
X419379Y137612D02*X416959Y140032D01*
X415507Y135192D02*X414297Y136402D01*
X410667Y140637D02*X410062Y141242D01*
X408247D02*X410062D01*
X408247D02*X407642Y140637D01*
Y139427D02*Y140637D01*
X410667Y136402D02*X407642Y139427D01*
Y136402D02*X410667D01*
X406190Y137007D02*X405585Y136402D01*
X406190Y137007D02*Y140637D01*
X405585Y141242D01*
X404375D02*X405585D01*
X404375D02*X403770Y140637D01*
Y137007D02*Y140637D01*
X404375Y136402D02*X403770Y137007D01*
X404375Y136402D02*X405585D01*
X406190Y137612D02*X403770Y140032D01*
X402318Y140274D02*X401350Y141242D01*
Y136402D02*Y141242D01*
X400503Y136402D02*X402318D01*
X398446D02*X396026Y141242D01*
X399051D01*
X203975Y164290D02*X207000D01*
Y159450D02*X203975Y164290D01*
Y159450D02*X207000D01*
X202523Y163685D02*X201918Y164290D01*
X200708D02*X201918D01*
X200708D02*X200103Y163685D01*
X200708Y159450D02*X200103Y160055D01*
X200708Y159450D02*X201918D01*
X202523Y160055D02*X201918Y159450D01*
X200708Y162112D02*X201918D01*
X200103Y162717D02*Y163685D01*
Y160055D02*Y161507D01*
X200708Y162112D01*
X200103Y162717D02*X200708Y162112D01*
X353320Y145410D02*X357500D01*
X353320D02*X352275Y144365D01*
Y142275D02*Y144365D01*
X353320Y141230D02*X352275Y142275D01*
X353320Y141230D02*X356455D01*
Y137050D02*Y145410D01*
X354783Y141230D02*X352275Y137050D01*
X349767Y138095D02*Y140185D01*
X348722Y141230D01*
X346632D02*X348722D01*
X346632D02*X345587Y140185D01*
Y138095D02*Y140185D01*
X346632Y137050D02*X345587Y138095D01*
X346632Y137050D02*X348722D01*
X349767Y138095D02*X348722Y137050D01*
X343079D02*Y145410D01*
Y138095D02*X342034Y137050D01*
X339944D02*X342034D01*
X339944D02*X338899Y138095D01*
Y140185D01*
X339944Y141230D02*X338899Y140185D01*
X339944Y141230D02*X342034D01*
X343079Y140185D02*X342034Y141230D01*
X336391Y138095D02*Y140185D01*
X335346Y141230D01*
X333256D02*X335346D01*
X333256D02*X332211Y140185D01*
Y138095D02*Y140185D01*
X333256Y137050D02*X332211Y138095D01*
X333256Y137050D02*X335346D01*
X336391Y138095D02*X335346Y137050D01*
X328658Y138095D02*Y145410D01*
Y138095D02*X327613Y137050D01*
Y142275D02*X329703D01*
X325523Y137050D02*Y145410D01*
X322388Y141230D01*
X319253Y145410D01*
Y137050D02*Y145410D01*
G54D92*X316745Y143111D02*Y143320D01*
G54D91*Y137050D02*Y140185D01*
X310475Y137050D02*X313610D01*
X310475D02*X309430Y138095D01*
X310475Y139140D02*X309430Y138095D01*
X310475Y139140D02*X313610D01*
X314655Y140185D02*X313610Y139140D01*
X314655Y140185D02*X313610Y141230D01*
X310475D02*X313610D01*
X310475D02*X309430Y140185D01*
X314655Y138095D02*X313610Y137050D01*
X302742D02*X305877D01*
X302742D02*X301697Y138095D01*
X302742Y139140D02*X301697Y138095D01*
X302742Y139140D02*X305877D01*
X306922Y140185D02*X305877Y139140D01*
X306922Y140185D02*X305877Y141230D01*
X302742D02*X305877D01*
X302742D02*X301697Y140185D01*
X306922Y138095D02*X305877Y137050D01*
G54D92*X299189Y143111D02*Y143320D01*
G54D91*Y137050D02*Y140185D01*
X297099Y138095D02*Y140185D01*
X296054Y141230D01*
X293964D02*X296054D01*
X293964D02*X292919Y140185D01*
Y138095D02*Y140185D01*
X293964Y137050D02*X292919Y138095D01*
X293964Y137050D02*X296054D01*
X297099Y138095D02*X296054Y137050D01*
X289366D02*Y140185D01*
X288321Y141230D01*
X287276D02*X288321D01*
X287276D02*X286231Y140185D01*
Y137050D02*Y140185D01*
X290411Y141230D02*X289366Y140185D01*
X279543Y137050D02*X282678D01*
X279543D02*X278498Y138095D01*
X279543Y139140D02*X278498Y138095D01*
X279543Y139140D02*X282678D01*
X283723Y140185D02*X282678Y139140D01*
X283723Y140185D02*X282678Y141230D01*
X279543D02*X282678D01*
X279543D02*X278498Y140185D01*
X283723Y138095D02*X282678Y137050D01*
X274945D02*X275990D01*
X272437Y138095D02*Y140185D01*
X271392Y141230D01*
X269302D02*X271392D01*
X269302D02*X268257Y140185D01*
Y138095D02*Y140185D01*
X269302Y137050D02*X268257Y138095D01*
X269302Y137050D02*X271392D01*
X272437Y138095D02*X271392Y137050D01*
X264704D02*Y140185D01*
X263659Y141230D01*
X261569D02*X263659D01*
X265749D02*X264704Y140185D01*
X255926Y141230D02*X254881Y140185D01*
X255926Y141230D02*X258016D01*
X259061Y140185D02*X258016Y141230D01*
X259061Y138095D02*Y140185D01*
Y138095D02*X258016Y137050D01*
X255926D02*X258016D01*
X255926D02*X254881Y138095D01*
X259061Y134960D02*X258016Y133915D01*
X255926D02*X258016D01*
X255926D02*X254881Y134960D01*
Y141230D01*
X165975Y164290D02*X169000D01*
Y159450D02*X165975Y164290D01*
Y159450D02*X169000D01*
X164523Y163322D02*X163555Y164290D01*
Y159450D02*Y164290D01*
X162708Y159450D02*X164523D01*
X184475Y164290D02*X187500D01*
Y159450D02*X184475Y164290D01*
Y159450D02*X187500D01*
X183023Y163685D02*X182418Y164290D01*
X180603D02*X182418D01*
X180603D02*X179998Y163685D01*
Y162475D02*Y163685D01*
X183023Y159450D02*X179998Y162475D01*
Y159450D02*X183023D01*
X153080Y268290D02*X152475Y267685D01*
X153080Y268290D02*X154895D01*
X155500Y267685D02*X154895Y268290D01*
X155500Y264055D02*Y267685D01*
Y264055D02*X154895Y263450D01*
X153080D02*X154895D01*
X153080D02*X152475Y264055D01*
Y265265D01*
X153080Y265870D02*X152475Y265265D01*
X153080Y265870D02*X154290D01*
X150418Y263450D02*Y265265D01*
X149813Y265870D01*
X149208D02*X149813D01*
X149208D02*X148603Y265265D01*
Y263450D02*Y265265D01*
X151023Y265870D02*X150418Y265265D01*
X144731Y263450D02*Y268290D01*
X145336Y263450D02*X144731Y264055D01*
X145336Y263450D02*X146546D01*
X147151Y264055D02*X146546Y263450D01*
X147151Y264055D02*Y265265D01*
X146546Y265870D01*
X145336D02*X146546D01*
X145336D02*X144731Y265265D01*
X153580Y275290D02*X156000D01*
X154790Y270450D02*Y275290D01*
X151523Y270450D02*Y275290D01*
X149708D02*X152128D01*
X149708D02*X149103Y274685D01*
Y273475D02*Y274685D01*
X149708Y272870D02*X149103Y273475D01*
X149708Y272870D02*X151523D01*
X147651Y272265D02*X145231Y275290D01*
X144626Y272265D02*X147651D01*
X145231Y270450D02*Y275290D01*
X447820Y158730D02*X452000D01*
X449910Y156640D02*Y160820D01*
X437370Y162910D02*X441550D01*
X437370D02*X436325Y161865D01*
Y159775D02*Y161865D01*
X437370Y158730D02*X436325Y159775D01*
X437370Y158730D02*X440505D01*
Y154550D02*Y162910D01*
X438833Y158730D02*X436325Y154550D01*
X429637Y162910D02*X433817D01*
X431727Y154550D02*Y162910D01*
X422949Y154550D02*X425666D01*
X427129Y156013D02*X425666Y154550D01*
X427129Y156013D02*Y161447D01*
X425666Y162910D01*
X422949D02*X425666D01*
X412499Y154550D02*X416679D01*
X412499D02*X411454Y155595D01*
Y158103D01*
X412499Y159148D02*X411454Y158103D01*
X412499Y159148D02*X415634D01*
Y154550D02*Y162910D01*
X412499D02*X416679D01*
X412499D02*X411454Y161865D01*
Y160193D02*Y161865D01*
X412499Y159148D02*X411454Y160193D01*
X405811Y158730D02*X404766Y157685D01*
X405811Y158730D02*X407901D01*
X408946Y157685D02*X407901Y158730D01*
X408946Y155595D02*Y157685D01*
Y155595D02*X407901Y154550D01*
X404766Y155595D02*Y158730D01*
Y155595D02*X403721Y154550D01*
X405811D02*X407901D01*
X405811D02*X404766Y155595D01*
X400168D02*Y162910D01*
Y155595D02*X399123Y154550D01*
Y159775D02*X401213D01*
X395988Y155595D02*Y162910D01*
Y155595D02*X394943Y154550D01*
Y159775D02*X397033D01*
X384911Y158730D02*X389091D01*
X387001Y156640D02*Y160820D01*
X153580Y405290D02*X156000D01*
X154790Y400450D02*Y405290D01*
X151523Y400450D02*Y405290D01*
X149708D02*X152128D01*
X149708D02*X149103Y404685D01*
Y403475D02*Y404685D01*
X149708Y402870D02*X149103Y403475D01*
X149708Y402870D02*X151523D01*
X147651Y404322D02*X146683Y405290D01*
Y400450D02*Y405290D01*
X145836Y400450D02*X147651D01*
X153080Y370790D02*X155500D01*
X154290Y365950D02*Y370790D01*
X151023Y365950D02*Y370790D01*
X149208D02*X151628D01*
X149208D02*X148603Y370185D01*
Y368975D02*Y370185D01*
X149208Y368370D02*X148603Y368975D01*
X149208Y368370D02*X151023D01*
X147151Y370185D02*X146546Y370790D01*
X144731D02*X146546D01*
X144731D02*X144126Y370185D01*
Y368975D02*Y370185D01*
X147151Y365950D02*X144126Y368975D01*
Y365950D02*X147151D01*
X155080Y339790D02*X157500D01*
X156290Y334950D02*Y339790D01*
X153023Y334950D02*Y339790D01*
X151208D02*X153628D01*
X151208D02*X150603Y339185D01*
Y337975D02*Y339185D01*
X151208Y337370D02*X150603Y337975D01*
X151208Y337370D02*X153023D01*
X149151Y339185D02*X148546Y339790D01*
X147336D02*X148546D01*
X147336D02*X146731Y339185D01*
X147336Y334950D02*X146731Y335555D01*
X147336Y334950D02*X148546D01*
X149151Y335555D02*X148546Y334950D01*
X147336Y337612D02*X148546D01*
X146731Y338217D02*Y339185D01*
Y335555D02*Y337007D01*
X147336Y337612D01*
X146731Y338217D02*X147336Y337612D01*
X221080Y329290D02*X223500D01*
X222290Y324450D02*Y329290D01*
X219023Y324450D02*Y329290D01*
X217208D02*X219628D01*
X217208D02*X216603Y328685D01*
Y327475D02*Y328685D01*
X217208Y326870D02*X216603Y327475D01*
X217208Y326870D02*X219023D01*
X212731Y329290D02*X215151D01*
Y326870D02*Y329290D01*
Y326870D02*X214546Y327475D01*
X213336D02*X214546D01*
X213336D02*X212731Y326870D01*
Y325055D02*Y326870D01*
X213336Y324450D02*X212731Y325055D01*
X213336Y324450D02*X214546D01*
X215151Y325055D02*X214546Y324450D01*
X156500Y329055D02*Y330870D01*
Y329055D02*X155895Y328450D01*
X154685D02*X155895D01*
X154685D02*X154080Y329055D01*
Y330870D01*
X150208Y328450D02*X151781D01*
X152628Y329297D02*X151781Y328450D01*
X152628Y329297D02*Y332443D01*
X151781Y333290D01*
X150208D02*X151781D01*
X146578D02*X145368Y328450D01*
X144158Y333290D01*
X140286Y330870D02*X142706D01*
X141496Y329660D02*Y332080D01*
X218080Y322290D02*X217475Y321685D01*
X218080Y322290D02*X219895D01*
X220500Y321685D02*X219895Y322290D01*
X220500Y320475D02*Y321685D01*
Y320475D02*X219895Y319870D01*
X218080D02*X219895D01*
X218080D02*X217475Y319265D01*
Y318055D02*Y319265D01*
X218080Y317450D02*X217475Y318055D01*
X218080Y317450D02*X219895D01*
X220500Y318055D02*X219895Y317450D01*
X213603D02*X215418D01*
X216023Y318055D02*X215418Y317450D01*
X216023Y318055D02*Y319265D01*
X215418Y319870D01*
X214208D02*X215418D01*
X214208D02*X213603Y319265D01*
Y318660D02*X216023D01*
X213603D02*Y319265D01*
X211546Y317450D02*Y319265D01*
X210941Y319870D01*
X209731D02*X210941D01*
X212151D02*X211546Y319265D01*
X208279Y319870D02*X207069Y317450D01*
X205859Y319870D02*X207069Y317450D01*
X204407Y318055D02*Y319265D01*
X203802Y319870D01*
X202592D02*X203802D01*
X202592D02*X201987Y319265D01*
Y318055D02*Y319265D01*
X202592Y317450D02*X201987Y318055D01*
X202592Y317450D02*X203802D01*
X204407Y318055D02*X203802Y317450D01*
X198357Y322290D02*X197147Y317450D01*
X195937Y322290D01*
X192065Y319870D02*X194485D01*
X193275Y318660D02*Y321080D01*
X123475Y324790D02*X126500D01*
Y319950D02*X123475Y324790D01*
Y319950D02*X126500D01*
X122023Y323822D02*X121055Y324790D01*
Y319950D02*Y324790D01*
X120208Y319950D02*X122023D01*
X298580Y331290D02*X301000D01*
X299790Y326450D02*Y331290D01*
X296523Y326450D02*Y331290D01*
X294708D02*X297128D01*
X294708D02*X294103Y330685D01*
Y329475D02*Y330685D01*
X294708Y328870D02*X294103Y329475D01*
X294708Y328870D02*X296523D01*
X290836Y331290D02*X290231Y330685D01*
X290836Y331290D02*X292046D01*
X292651Y330685D02*X292046Y331290D01*
X292651Y327055D02*Y330685D01*
Y327055D02*X292046Y326450D01*
X290836Y329112D02*X290231Y328507D01*
X290836Y329112D02*X292651D01*
X290836Y326450D02*X292046D01*
X290836D02*X290231Y327055D01*
Y328507D01*
X305780Y310402D02*Y315242D01*
X303965Y312822D01*
X302150Y315242D01*
Y310402D02*Y315242D01*
X300698Y311007D02*Y312217D01*
X300093Y312822D01*
X298883D02*X300093D01*
X298883D02*X298278Y312217D01*
Y311007D02*Y312217D01*
X298883Y310402D02*X298278Y311007D01*
X298883Y310402D02*X300093D01*
X300698Y311007D02*X300093Y310402D01*
X296221Y311007D02*Y315242D01*
Y311007D02*X295616Y310402D01*
Y313427D02*X296826D01*
X294406Y311007D02*Y312217D01*
X293801Y312822D01*
X292591D02*X293801D01*
X292591D02*X291986Y312217D01*
Y311007D02*Y312217D01*
X292591Y310402D02*X291986Y311007D01*
X292591Y310402D02*X293801D01*
X294406Y311007D02*X293801Y310402D01*
X289929D02*Y312217D01*
X289324Y312822D01*
X288114D02*X289324D01*
X290534D02*X289929Y312217D01*
X284484Y315242D02*X283274Y310402D01*
X282064Y315242D01*
X278192Y312822D02*X280612D01*
X279402Y311612D02*Y314032D01*
X317596Y306022D02*X317106Y305532D01*
X317596Y308962D02*X317106Y309452D01*
X317596Y306022D02*Y308962D01*
X314460Y307492D02*X313970Y307002D01*
X314460Y307492D02*X315440D01*
X315930Y307002D02*X315440Y307492D01*
X315930Y306022D02*Y307002D01*
Y306022D02*X315440Y305532D01*
X313970Y306022D02*Y307492D01*
Y306022D02*X313480Y305532D01*
X314460D02*X315440D01*
X314460D02*X313970Y306022D01*
X311814Y305532D02*Y308962D01*
X311324Y309452D01*
X310834D02*X311324D01*
Y307492D02*X312304D01*
X309364Y306022D02*Y309452D01*
Y306022D02*X308874Y305532D01*
Y307982D02*X309854D01*
X305934Y305532D02*X307404D01*
X307894Y306022D02*X307404Y305532D01*
X307894Y306022D02*Y307002D01*
X307404Y307492D01*
X306424D02*X307404D01*
X306424D02*X305934Y307002D01*
Y306512D02*X307894D01*
X305934D02*Y307002D01*
X304268Y305532D02*Y307002D01*
X303778Y307492D01*
X302798D02*X303778D01*
X304758D02*X304268Y307002D01*
X297898Y307492D02*X299368D01*
X299858Y307002D02*X299368Y307492D01*
X299858Y306022D02*Y307002D01*
Y306022D02*X299368Y305532D01*
X297898D02*X299368D01*
X296722Y306022D02*Y307492D01*
Y306022D02*X296232Y305532D01*
X295252D02*X296232D01*
X295252D02*X294762Y306022D01*
Y307492D01*
X293096Y305532D02*Y307002D01*
X292606Y307492D01*
X291626D02*X292606D01*
X293586D02*X293096Y307002D01*
X289960Y305532D02*Y307002D01*
X289470Y307492D01*
X288490D02*X289470D01*
X290450D02*X289960Y307002D01*
X285354Y305532D02*X286824D01*
X287314Y306022D02*X286824Y305532D01*
X287314Y306022D02*Y307002D01*
X286824Y307492D01*
X285844D02*X286824D01*
X285844D02*X285354Y307002D01*
Y306512D02*X287314D01*
X285354D02*Y307002D01*
X283688Y305532D02*Y307002D01*
X283198Y307492D01*
X282708D02*X283198D01*
X282708D02*X282218Y307002D01*
Y305532D02*Y307002D01*
X284178Y307492D02*X283688Y307002D01*
X280552Y306022D02*Y309452D01*
Y306022D02*X280062Y305532D01*
Y307982D02*X281042D01*
X275358Y305532D02*X276828D01*
X275358D02*X274868Y306022D01*
X275358Y306512D02*X274868Y306022D01*
X275358Y306512D02*X276828D01*
X277318Y307002D02*X276828Y306512D01*
X277318Y307002D02*X276828Y307492D01*
X275358D02*X276828D01*
X275358D02*X274868Y307002D01*
X277318Y306022D02*X276828Y305532D01*
X271732D02*X273202D01*
X273692Y306022D02*X273202Y305532D01*
X273692Y306022D02*Y307002D01*
X273202Y307492D01*
X272222D02*X273202D01*
X272222D02*X271732Y307002D01*
Y306512D02*X273692D01*
X271732D02*Y307002D01*
X270066Y305532D02*Y307002D01*
X269576Y307492D01*
X269086D02*X269576D01*
X269086D02*X268596Y307002D01*
Y305532D02*Y307002D01*
X270556Y307492D02*X270066Y307002D01*
X265460Y305532D02*X266930D01*
X265460D02*X264970Y306022D01*
X265460Y306512D02*X264970Y306022D01*
X265460Y306512D02*X266930D01*
X267420Y307002D02*X266930Y306512D01*
X267420Y307002D02*X266930Y307492D01*
X265460D02*X266930D01*
X265460D02*X264970Y307002D01*
X267420Y306022D02*X266930Y305532D01*
X263304D02*X263794D01*
X262128Y309452D02*X261638Y308962D01*
Y306022D02*Y308962D01*
X262128Y305532D02*X261638Y306022D01*
X417780Y419007D02*Y422637D01*
X417175Y423242D01*
X415965D02*X417175D01*
X415965D02*X415360Y422637D01*
Y419007D02*Y422637D01*
X415965Y418402D02*X415360Y419007D01*
X415965Y418402D02*X417175D01*
X417780Y419007D02*X417175Y418402D01*
X413303Y416587D02*Y420217D01*
X413908Y420822D02*X413303Y420217D01*
X412698Y420822D01*
X411488D02*X412698D01*
X411488D02*X410883Y420217D01*
Y419007D02*Y420217D01*
X411488Y418402D02*X410883Y419007D01*
X411488Y418402D02*X412698D01*
X413303Y419007D02*X412698Y418402D01*
X407011D02*X408826D01*
X409431Y419007D02*X408826Y418402D01*
X409431Y419007D02*Y420217D01*
X408826Y420822D01*
X407616D02*X408826D01*
X407616D02*X407011Y420217D01*
Y419612D02*X409431D01*
X407011D02*Y420217D01*
X404954Y418402D02*Y420217D01*
X404349Y420822D01*
X403744D02*X404349D01*
X403744D02*X403139Y420217D01*
Y418402D02*Y420217D01*
X405559Y420822D02*X404954Y420217D01*
X397089Y423242D02*X396484Y422637D01*
X397089Y423242D02*X398904D01*
X399509Y422637D02*X398904Y423242D01*
X399509Y421427D02*Y422637D01*
Y421427D02*X398904Y420822D01*
X397089D02*X398904D01*
X397089D02*X396484Y420217D01*
Y419007D02*Y420217D01*
X397089Y418402D02*X396484Y419007D01*
X397089Y418402D02*X398904D01*
X399509Y419007D02*X398904Y418402D01*
X395032Y419007D02*Y420217D01*
X394427Y420822D01*
X393217D02*X394427D01*
X393217D02*X392612Y420217D01*
Y419007D02*Y420217D01*
X393217Y418402D02*X392612Y419007D01*
X393217Y418402D02*X394427D01*
X395032Y419007D02*X394427Y418402D01*
X391160Y419007D02*Y420822D01*
Y419007D02*X390555Y418402D01*
X389345D02*X390555D01*
X389345D02*X388740Y419007D01*
Y420822D01*
X386683Y418402D02*Y420217D01*
X386078Y420822D01*
X384868D02*X386078D01*
X387288D02*X386683Y420217D01*
X380996Y420822D02*X382811D01*
X383416Y420217D02*X382811Y420822D01*
X383416Y419007D02*Y420217D01*
Y419007D02*X382811Y418402D01*
X380996D02*X382811D01*
X377124D02*X378939D01*
X379544Y419007D02*X378939Y418402D01*
X379544Y419007D02*Y420217D01*
X378939Y420822D01*
X377729D02*X378939D01*
X377729D02*X377124Y420217D01*
Y419612D02*X379544D01*
X377124D02*Y420217D01*
X373494Y418402D02*Y423242D01*
X370469Y418402D02*Y423242D01*
Y420822D02*X373494D01*
X367202D02*X366597Y420217D01*
X367202Y420822D02*X368412D01*
X369017Y420217D02*X368412Y420822D01*
X369017Y419007D02*Y420217D01*
Y419007D02*X368412Y418402D01*
X366597Y419007D02*Y420822D01*
Y419007D02*X365992Y418402D01*
X367202D02*X368412D01*
X367202D02*X366597Y419007D01*
X363935Y418402D02*Y420217D01*
X363330Y420822D01*
X362120D02*X363330D01*
X364540D02*X363935Y420217D01*
X358248Y418402D02*Y423242D01*
X358853Y418402D02*X358248Y419007D01*
X358853Y418402D02*X360063D01*
X360668Y419007D02*X360063Y418402D01*
X360668Y419007D02*Y420217D01*
X360063Y420822D01*
X358853D02*X360063D01*
X358853D02*X358248Y420217D01*
X356796Y419007D02*Y420822D01*
Y419007D02*X356191Y418402D01*
X355586D02*X356191D01*
X355586D02*X354981Y419007D01*
Y420822D01*
Y419007D02*X354376Y418402D01*
X353771D02*X354376D01*
X353771D02*X353166Y419007D01*
Y420822D01*
X349899D02*X349294Y420217D01*
X349899Y420822D02*X351109D01*
X351714Y420217D02*X351109Y420822D01*
X351714Y419007D02*Y420217D01*
Y419007D02*X351109Y418402D01*
X349294Y419007D02*Y420822D01*
Y419007D02*X348689Y418402D01*
X349899D02*X351109D01*
X349899D02*X349294Y419007D01*
X346632Y418402D02*Y420217D01*
X346027Y420822D01*
X344817D02*X346027D01*
X347237D02*X346632Y420217D01*
X340945Y418402D02*X342760D01*
X343365Y419007D02*X342760Y418402D01*
X343365Y419007D02*Y420217D01*
X342760Y420822D01*
X341550D02*X342760D01*
X341550D02*X340945Y420217D01*
Y419612D02*X343365D01*
X340945D02*Y420217D01*
X415360Y414242D02*X417780D01*
X415360D02*X414755Y413637D01*
Y412427D02*Y413637D01*
X415360Y411822D02*X414755Y412427D01*
X415360Y411822D02*X417175D01*
Y409402D02*Y414242D01*
X416207Y411822D02*X414755Y409402D01*
X410883D02*X412698D01*
X413303Y410007D02*X412698Y409402D01*
X413303Y410007D02*Y411217D01*
X412698Y411822D01*
X411488D02*X412698D01*
X411488D02*X410883Y411217D01*
Y410612D02*X413303D01*
X410883D02*Y411217D01*
X409431Y410007D02*Y414242D01*
Y410007D02*X408826Y409402D01*
X405196D02*X407011D01*
X407616Y410007D02*X407011Y409402D01*
X407616Y410007D02*Y411217D01*
X407011Y411822D01*
X405801D02*X407011D01*
X405801D02*X405196Y411217D01*
Y410612D02*X407616D01*
X405196D02*Y411217D01*
X401929Y411822D02*X401324Y411217D01*
X401929Y411822D02*X403139D01*
X403744Y411217D02*X403139Y411822D01*
X403744Y410007D02*Y411217D01*
Y410007D02*X403139Y409402D01*
X401324Y410007D02*Y411822D01*
Y410007D02*X400719Y409402D01*
X401929D02*X403139D01*
X401929D02*X401324Y410007D01*
X396847Y409402D02*X398662D01*
X396847D02*X396242Y410007D01*
X396847Y410612D02*X396242Y410007D01*
X396847Y410612D02*X398662D01*
X399267Y411217D02*X398662Y410612D01*
X399267Y411217D02*X398662Y411822D01*
X396847D02*X398662D01*
X396847D02*X396242Y411217D01*
X399267Y410007D02*X398662Y409402D01*
X392370D02*X394185D01*
X394790Y410007D02*X394185Y409402D01*
X394790Y410007D02*Y411217D01*
X394185Y411822D01*
X392975D02*X394185D01*
X392975D02*X392370Y411217D01*
Y410612D02*X394790D01*
X392370D02*Y411217D01*
X388498Y409402D02*Y414242D01*
X389103Y409402D02*X388498Y410007D01*
X389103Y409402D02*X390313D01*
X390918Y410007D02*X390313Y409402D01*
X390918Y410007D02*Y411217D01*
X390313Y411822D01*
X389103D02*X390313D01*
X389103D02*X388498Y411217D01*
X384868Y410007D02*Y411822D01*
Y410007D02*X384263Y409402D01*
X383053D02*X384263D01*
X383053D02*X382448Y410007D01*
Y411822D01*
X380391Y409402D02*Y411217D01*
X379786Y411822D01*
X379181D02*X379786D01*
X379181D02*X378576Y411217D01*
Y409402D02*Y411217D01*
X380996Y411822D02*X380391Y411217D01*
X374704Y409402D02*Y414242D01*
X375309Y409402D02*X374704Y410007D01*
X375309Y409402D02*X376519D01*
X377124Y410007D02*X376519Y409402D01*
X377124Y410007D02*Y411217D01*
X376519Y411822D01*
X375309D02*X376519D01*
X375309D02*X374704Y411217D01*
X370832Y409402D02*X372647D01*
X373252Y410007D02*X372647Y409402D01*
X373252Y410007D02*Y411217D01*
X372647Y411822D01*
X371437D02*X372647D01*
X371437D02*X370832Y411217D01*
Y410612D02*X373252D01*
X370832D02*Y411217D01*
X368775Y409402D02*Y411217D01*
X368170Y411822D01*
X366960D02*X368170D01*
X369380D02*X368775Y411217D01*
X360910Y409402D02*X362483D01*
X363330Y410249D02*X362483Y409402D01*
X363330Y410249D02*Y413395D01*
X362483Y414242D01*
X360910D02*X362483D01*
X357643Y412064D02*X359458D01*
X357038Y409402D02*X359458D01*
Y414242D01*
X357038D02*X359458D01*
X353166D02*X355586D01*
X353166D02*X352561Y413637D01*
Y412427D02*Y413637D01*
X353166Y411822D02*X352561Y412427D01*
X353166Y411822D02*X354981D01*
Y409402D02*Y414242D01*
X354013Y411822D02*X352561Y409402D01*
X351109D02*Y414242D01*
X348084Y409402D01*
Y414242D01*
X344454Y410007D02*Y413637D01*
X343849Y414242D01*
X342639D02*X343849D01*
X342639D02*X342034Y413637D01*
Y410007D02*Y413637D01*
X342639Y409402D02*X342034Y410007D01*
X342639Y409402D02*X343849D01*
X344454Y410007D02*X343849Y409402D01*
X340582D02*Y414242D01*
X337557Y409402D02*Y414242D01*
Y411822D02*X340582D01*
X336105Y409402D02*Y414242D01*
X333685Y409402D02*X336105D01*
X330055Y411822D02*X328845Y409402D01*
X327635Y411822D02*X328845Y409402D01*
X326183Y413274D02*X325215Y414242D01*
Y409402D02*Y414242D01*
X324368Y409402D02*X326183D01*
X322311D02*X322916D01*
X320859Y413637D02*X320254Y414242D01*
X318439D02*X320254D01*
X318439D02*X317834Y413637D01*
Y412427D02*Y413637D01*
X320859Y409402D02*X317834Y412427D01*
Y409402D02*X320859D01*
X166000Y392950D02*Y397790D01*
X164185Y395370D01*
X162370Y397790D01*
Y392950D02*Y397790D01*
X160918Y393555D02*Y394765D01*
X160313Y395370D01*
X159103D02*X160313D01*
X159103D02*X158498Y394765D01*
Y393555D02*Y394765D01*
X159103Y392950D02*X158498Y393555D01*
X159103Y392950D02*X160313D01*
X160918Y393555D02*X160313Y392950D01*
X156441Y393555D02*Y397790D01*
Y393555D02*X155836Y392950D01*
Y395975D02*X157046D01*
X154626Y393555D02*Y394765D01*
X154021Y395370D01*
X152811D02*X154021D01*
X152811D02*X152206Y394765D01*
Y393555D02*Y394765D01*
X152811Y392950D02*X152206Y393555D01*
X152811Y392950D02*X154021D01*
X154626Y393555D02*X154021Y392950D01*
X150149D02*Y394765D01*
X149544Y395370D01*
X148334D02*X149544D01*
X150754D02*X150149Y394765D01*
X144704Y397790D02*X143494Y392950D01*
X142284Y397790D01*
X138412Y395370D02*X140832D01*
X139622Y394160D02*Y396580D01*
X161580Y365790D02*X160975Y365185D01*
X161580Y365790D02*X163395D01*
X164000Y365185D02*X163395Y365790D01*
X164000Y363975D02*Y365185D01*
Y363975D02*X163395Y363370D01*
X161580D02*X163395D01*
X161580D02*X160975Y362765D01*
Y361555D02*Y362765D01*
X161580Y360950D02*X160975Y361555D01*
X161580Y360950D02*X163395D01*
X164000Y361555D02*X163395Y360950D01*
X157103D02*X158918D01*
X159523Y361555D02*X158918Y360950D01*
X159523Y361555D02*Y362765D01*
X158918Y363370D01*
X157708D02*X158918D01*
X157708D02*X157103Y362765D01*
Y362160D02*X159523D01*
X157103D02*Y362765D01*
X155046Y360950D02*Y362765D01*
X154441Y363370D01*
X153231D02*X154441D01*
X155651D02*X155046Y362765D01*
X151779Y363370D02*X150569Y360950D01*
X149359Y363370D02*X150569Y360950D01*
X147907Y361555D02*Y362765D01*
X147302Y363370D01*
X146092D02*X147302D01*
X146092D02*X145487Y362765D01*
Y361555D02*Y362765D01*
X146092Y360950D02*X145487Y361555D01*
X146092Y360950D02*X147302D01*
X147907Y361555D02*X147302Y360950D01*
X141857Y365790D02*X140647Y360950D01*
X139437Y365790D01*
X135565Y363370D02*X137985D01*
X136775Y362160D02*Y364580D01*
X124475Y357290D02*X127500D01*
Y352450D02*X124475Y357290D01*
Y352450D02*X127500D01*
X123023Y356685D02*X122418Y357290D01*
X120603D02*X122418D01*
X120603D02*X119998Y356685D01*
Y355475D02*Y356685D01*
X123023Y352450D02*X119998Y355475D01*
Y352450D02*X123023D01*
X123975Y387290D02*X127000D01*
Y382450D02*X123975Y387290D01*
Y382450D02*X127000D01*
X122523Y386685D02*X121918Y387290D01*
X120708D02*X121918D01*
X120708D02*X120103Y386685D01*
X120708Y382450D02*X120103Y383055D01*
X120708Y382450D02*X121918D01*
X122523Y383055D02*X121918Y382450D01*
X120708Y385112D02*X121918D01*
X120103Y385717D02*Y386685D01*
Y383055D02*Y384507D01*
X120708Y385112D01*
X120103Y385717D02*X120708Y385112D01*
X227000Y312090D02*X226510Y311600D01*
X227000Y315030D02*X226510Y315520D01*
X227000Y312090D02*Y315030D01*
X223864Y313560D02*X223374Y313070D01*
X223864Y313560D02*X224844D01*
X225334Y313070D02*X224844Y313560D01*
X225334Y312090D02*Y313070D01*
Y312090D02*X224844Y311600D01*
X223374Y312090D02*Y313560D01*
Y312090D02*X222884Y311600D01*
X223864D02*X224844D01*
X223864D02*X223374Y312090D01*
X221218Y311600D02*Y315030D01*
X220728Y315520D01*
X220238D02*X220728D01*
Y313560D02*X221708D01*
X218768Y312090D02*Y315520D01*
Y312090D02*X218278Y311600D01*
Y314050D02*X219258D01*
X215338Y311600D02*X216808D01*
X217298Y312090D02*X216808Y311600D01*
X217298Y312090D02*Y313070D01*
X216808Y313560D01*
X215828D02*X216808D01*
X215828D02*X215338Y313070D01*
Y312580D02*X217298D01*
X215338D02*Y313070D01*
X213672Y311600D02*Y313070D01*
X213182Y313560D01*
X212202D02*X213182D01*
X214162D02*X213672Y313070D01*
X207302Y313560D02*X208772D01*
X209262Y313070D02*X208772Y313560D01*
X209262Y312090D02*Y313070D01*
Y312090D02*X208772Y311600D01*
X207302D02*X208772D01*
X206126Y312090D02*Y313560D01*
Y312090D02*X205636Y311600D01*
X204656D02*X205636D01*
X204656D02*X204166Y312090D01*
Y313560D01*
X202500Y311600D02*Y313070D01*
X202010Y313560D01*
X201030D02*X202010D01*
X202990D02*X202500Y313070D01*
X199364Y311600D02*Y313070D01*
X198874Y313560D01*
X197894D02*X198874D01*
X199854D02*X199364Y313070D01*
X194758Y311600D02*X196228D01*
X196718Y312090D02*X196228Y311600D01*
X196718Y312090D02*Y313070D01*
X196228Y313560D01*
X195248D02*X196228D01*
X195248D02*X194758Y313070D01*
Y312580D02*X196718D01*
X194758D02*Y313070D01*
X193092Y311600D02*Y313070D01*
X192602Y313560D01*
X192112D02*X192602D01*
X192112D02*X191622Y313070D01*
Y311600D02*Y313070D01*
X193582Y313560D02*X193092Y313070D01*
X189956Y312090D02*Y315520D01*
Y312090D02*X189466Y311600D01*
Y314050D02*X190446D01*
X224540Y305600D02*X226010D01*
X224540D02*X224050Y306090D01*
X224540Y306580D02*X224050Y306090D01*
X224540Y306580D02*X226010D01*
X226500Y307070D02*X226010Y306580D01*
X226500Y307070D02*X226010Y307560D01*
X224540D02*X226010D01*
X224540D02*X224050Y307070D01*
X226500Y306090D02*X226010Y305600D01*
X220914D02*X222384D01*
X222874Y306090D02*X222384Y305600D01*
X222874Y306090D02*Y307070D01*
X222384Y307560D01*
X221404D02*X222384D01*
X221404D02*X220914Y307070D01*
Y306580D02*X222874D01*
X220914D02*Y307070D01*
X219248Y305600D02*Y307070D01*
X218758Y307560D01*
X218268D02*X218758D01*
X218268D02*X217778Y307070D01*
Y305600D02*Y307070D01*
X219738Y307560D02*X219248Y307070D01*
X214642Y305600D02*X216112D01*
X214642D02*X214152Y306090D01*
X214642Y306580D02*X214152Y306090D01*
X214642Y306580D02*X216112D01*
X216602Y307070D02*X216112Y306580D01*
X216602Y307070D02*X216112Y307560D01*
X214642D02*X216112D01*
X214642D02*X214152Y307070D01*
X216602Y306090D02*X216112Y305600D01*
X212486D02*X212976D01*
X211310Y309520D02*X210820Y309030D01*
Y306090D02*Y309030D01*
X211310Y305600D02*X210820Y306090D01*
M02*
